<svg id="bold" enable-background="new 0 0 32 32" height="512" viewBox="0 0 32 32" width="512" xmlns="http://www.w3.org/2000/svg"><path d="m26 32h-20c-3.314 0-6-2.686-6-6v-20c0-3.314 2.686-6 6-6h20c3.314 0 6 2.686 6 6v20c0 3.314-2.686 6-6 6z" fill="#f5e6fe"/><path d="m24 14.087c0-1.563-1.205-2.866-2.796-3.155 0-.011.003-.022.003-.033-.001-1.599-1.396-2.899-3.112-2.899-.792 0-1.531.274-2.095.758-.564-.484-1.303-.758-2.095-.758-1.716 0-3.111 1.3-3.111 2.898 0 .011.003.022.003.033-1.592.29-2.797 1.593-2.797 3.156 0 .889.387 1.717 1.06 2.317-.238.466-.361.978-.361 1.509 0 1.357.822 2.569 2.095 3.16v.029c0 1.598 1.396 2.898 3.111 2.898.792 0 1.531-.274 2.095-.758.564.484 1.303.758 2.095.758 1.716 0 3.111-1.3 3.111-2.898 0-.009 0-.019 0-.029 1.273-.59 2.095-1.802 2.095-3.16 0-.532-.124-1.043-.361-1.509.673-.6 1.06-1.428 1.06-2.317zm-2.295 1.573c-.167.098-.284.264-.32.454-.035.19.014.387.135.538.292.366.447.801.447 1.26 0 .945-.674 1.783-1.676 2.085-.339.102-.538.45-.456.794.025.103.038.21.038.31 0 .863-.798 1.565-1.778 1.565-.63 0-1.219-.302-1.537-.789-.246-.376-.87-.376-1.116 0-.318.487-.908.789-1.537.789-.838 0-1.538-.515-1.725-1.202.517-.015 1.131-.121 1.587-.495.282-.231.618-.66.618-1.384 0-1.252-.718-1.97-1.971-1.97-.368 0-.667.299-.667.667s.298.667.667.667c.518 0 .637.119.637.637 0 .216-.066.299-.13.353-.206.169-.549.26-1.214.06-1.003-.302-1.676-1.14-1.676-2.085 0-.459.155-.895.447-1.26.121-.151.171-.348.135-.538s-.152-.356-.32-.454c-.602-.352-.962-.94-.962-1.573 0-1.039.954-1.884 2.127-1.884.396 0 .73.279.73.609 0 .368.298.667.667.667.368 0 .667-.299.667-.667 0-.845-.58-1.559-1.383-1.825-.002-.03-.014-.057-.014-.088 0-.863.798-1.565 1.778-1.565.63 0 1.219.302 1.537.789.246.376.87.376 1.116 0 .318-.487.908-.789 1.537-.789.98 0 1.778.702 1.778 1.565 0 .031-.012.058-.014.088-.803.266-1.383.98-1.383 1.825 0 1.071.926 1.942 2.064 1.942.368 0 .667-.299.667-.667s-.298-.667-.667-.667c-.396 0-.73-.279-.73-.609s.335-.609.73-.609c1.173 0 2.127.845 2.127 1.884.002.632-.358 1.221-.96 1.572z" fill="#be63f9"/><g fill="#d9a4fc"><path d="m18.167 17.333c-.115 0-.231-.039-.326-.12-.21-.18-.234-.495-.054-.705l.721-.841-.721-.841c-.18-.21-.156-.525.054-.705.21-.179.525-.156.705.054l1 1.167c.161.188.161.464 0 .651l-1 1.167c-.099.114-.239.173-.379.173z"/><path d="m13.833 17.333c-.141 0-.281-.059-.38-.174l-1-1.167c-.161-.188-.161-.464 0-.651l1-1.167c.18-.21.495-.234.705-.054s.234.495.054.705l-.721.841.721.841c.18.21.156.525-.054.705-.094.082-.209.121-.325.121z"/><path d="m15.387 18.321c-.269-.062-.437-.331-.374-.6l1-4.333c.062-.27.335-.436.6-.375.269.062.437.331.374.6l-1 4.333c-.06.262-.321.437-.6.375z"/></g></svg>