<?xml version="1.0" encoding="utf-8"?>
<!-- Generator: Adobe Illustrator 24.3.0, SVG Export Plug-In . SVG Version: 6.00 Build 0)  -->
<svg version="1.1" id="Layer_1" xmlns="http://www.w3.org/2000/svg" xmlns:xlink="http://www.w3.org/1999/xlink" x="0px" y="0px"
	 viewBox="0 0 4680 3120" style="enable-background:new 0 0 4680 3120;" xml:space="preserve">
<style type="text/css">
	.st0{display:none;fill:#FFFFFF;}
	.st1{display:none;}
	.st2{display:inline;fill:#2B3033;}
	.st3{display:inline;fill:#A3A7AA;}
	.st4{fill:#B0D8FF;}
	.st5{fill:#FFFFFF;}
	.st6{fill:url(#SVGID_1_);}
	.st7{fill:#D5E1F7;}
	.st8{fill:#EBF5FF;}
	.st9{fill:#00D967;}
	.st10{fill:#DAEBFF;}
	.st11{fill:#E2EEFA;}
	.st12{fill:#D3E2F9;}
	.st13{fill:#D1E3FF;}
	.st14{fill:#E3EEFF;}
	.st15{fill:#F5FCFF;}
	.st16{fill:#D1E3FF;stroke:#B6D4FF;stroke-miterlimit:10;}
	.st17{fill:none;stroke:#B6D4FF;stroke-width:2.3249;stroke-miterlimit:10;}
	.st18{opacity:0.45;fill:url(#SVGID_2_);}
	.st19{fill:url(#SVGID_3_);}
	.st20{fill:#006DFE;}
	.st21{opacity:0.34;clip-path:url(#SVGID_5_);}
	.st22{fill:#191E56;}
	.st23{fill:#0542BF;}
	.st24{clip-path:url(#SVGID_7_);fill:#004EFC;}
	.st25{clip-path:url(#SVGID_9_);fill:#FE8E00;}
	.st26{fill:#FFAB00;}
	.st27{clip-path:url(#SVGID_11_);fill:#1A1A7C;}
	.st28{clip-path:url(#SVGID_13_);fill:#1A1A7C;}
	.st29{fill:#DE4D30;}
	.st30{fill:#9BB4C9;}
	.st31{fill:#4143C5;}
	.st32{fill:#859AD0;}
	.st33{clip-path:url(#SVGID_15_);fill:#EA756C;}
	.st34{clip-path:url(#SVGID_17_);fill:#172272;}
	.st35{clip-path:url(#SVGID_19_);fill:#EA756C;}
	.st36{fill:#FFACA6;}
	.st37{fill:#78C2FF;}
</style>
<g>
	<rect x="0" y="0" class="st0" width="4680" height="3120"/>
	<g class="st1">
		<path class="st2" d="M1871.72,2857.08h-25.31v26.15h-13.18v-63.98h41.66v10.68h-28.48v16.52h25.31V2857.08z"/>
		<path class="st2" d="M1930.96,2819.25v42.14c0,7-2.19,12.54-6.57,16.61c-4.38,4.07-10.36,6.11-17.95,6.11
			c-7.47,0-13.4-1.98-17.8-5.93c-4.39-3.96-6.64-9.39-6.72-16.3v-42.63h13.18v42.23c0,4.19,1,7.24,3.01,9.16
			c2.01,1.92,4.78,2.88,8.33,2.88c7.41,0,11.18-3.9,11.29-11.69v-42.58H1930.96z"/>
		<path class="st2" d="M1954.95,2872.64h27.99v10.59h-41.18v-63.98h13.18V2872.64z"/>
		<path class="st2" d="M2003.69,2872.64h27.99v10.59h-41.18v-63.98h13.18V2872.64z"/>
		<path class="st2" d="M2094.83,2866.44c0-2.49-0.88-4.4-2.64-5.73c-1.76-1.33-4.92-2.74-9.49-4.22c-4.57-1.48-8.19-2.94-10.86-4.37
			c-7.27-3.93-10.9-9.21-10.9-15.86c0-3.46,0.97-6.54,2.92-9.25c1.95-2.71,4.75-4.83,8.39-6.35c3.65-1.52,7.74-2.29,12.28-2.29
			c4.57,0,8.64,0.83,12.22,2.48c3.57,1.66,6.35,3.99,8.33,7.01c1.98,3.02,2.97,6.45,2.97,10.28h-13.18c0-2.93-0.92-5.21-2.77-6.83
			s-4.44-2.44-7.78-2.44c-3.22,0-5.73,0.68-7.51,2.04c-1.79,1.36-2.68,3.16-2.68,5.38c0,2.08,1.05,3.82,3.14,5.23
			c2.09,1.41,5.18,2.72,9.25,3.96c7.5,2.26,12.96,5.05,16.39,8.39c3.43,3.34,5.14,7.5,5.14,12.48c0,5.54-2.09,9.88-6.28,13.03
			c-4.19,3.15-9.83,4.72-16.92,4.72c-4.92,0-9.4-0.9-13.45-2.7c-4.04-1.8-7.13-4.27-9.25-7.4c-2.13-3.13-3.19-6.77-3.19-10.9h13.23
			c0,7.06,4.22,10.59,12.66,10.59c3.13,0,5.58-0.64,7.34-1.91S2094.83,2868.73,2094.83,2866.44z"/>
		<path class="st2" d="M2165.14,2829.92h-19.6v53.31h-13.18v-53.31h-19.34v-10.68h52.12V2829.92z"/>
		<path class="st2" d="M2203.51,2870.05h-23.12l-4.39,13.18h-14.02l23.82-63.98h12.22l23.95,63.98h-14.02L2203.51,2870.05z
			 M2183.95,2859.37h16l-8.04-23.95L2183.95,2859.37z"/>
		<path class="st2" d="M2277.25,2861.92c-0.5,6.88-3.04,12.3-7.62,16.26s-10.63,5.93-18.13,5.93c-8.2,0-14.66-2.76-19.36-8.28
			c-4.7-5.52-7.05-13.1-7.05-22.74v-3.91c0-6.15,1.08-11.57,3.25-16.26c2.17-4.69,5.27-8.28,9.29-10.79
			c4.03-2.5,8.71-3.76,14.04-3.76c7.38,0,13.33,1.98,17.84,5.93c4.51,3.96,7.12,9.51,7.82,16.66h-13.18
			c-0.32-4.13-1.47-7.13-3.45-8.99c-1.98-1.86-4.99-2.79-9.03-2.79c-4.39,0-7.68,1.58-9.87,4.72c-2.18,3.15-3.3,8.04-3.36,14.66
			v4.83c0,6.91,1.05,11.97,3.14,15.16c2.09,3.19,5.4,4.79,9.91,4.79c4.07,0,7.11-0.93,9.12-2.79c2.01-1.86,3.16-4.74,3.45-8.64
			H2277.25z"/>
		<path class="st2" d="M2305.94,2857.57l-6.86,7.38v18.28h-13.18v-63.98h13.18v29l5.8-7.95l16.3-21.05h16.22l-22.72,28.43
			l23.38,35.55h-15.69L2305.94,2857.57z"/>
		<path class="st2" d="M2365.45,2883.23v-63.98h19.69c5.63,0,10.66,1.27,15.09,3.8c4.44,2.53,7.9,6.14,10.39,10.81
			c2.49,4.67,3.73,9.98,3.73,15.93v2.94c0,5.95-1.22,11.24-3.67,15.86c-2.45,4.63-5.9,8.22-10.35,10.77
			c-4.45,2.55-9.48,3.84-15.07,3.87H2365.45z M2378.63,2829.92v42.71h6.37c5.16,0,9.1-1.68,11.82-5.05
			c2.72-3.37,4.11-8.19,4.17-14.46v-3.38c0-6.5-1.35-11.43-4.04-14.79c-2.7-3.35-6.63-5.03-11.82-5.03H2378.63z"/>
		<path class="st2" d="M2462.43,2855.41h-25.31v17.23h29.71v10.59h-42.89v-63.98h42.8v10.68h-29.62v15.25h25.31V2855.41z"/>
		<path class="st2" d="M2498.2,2867.37l14.5-48.12h14.68l-22.28,63.98h-13.76l-22.19-63.98h14.63L2498.2,2867.37z"/>
		<path class="st2" d="M2571.9,2855.41h-25.31v17.23h29.71v10.59h-42.89v-63.98h42.8v10.68h-29.62v15.25h25.31V2855.41z"/>
		<path class="st2" d="M2597.21,2872.64h27.99v10.59h-41.18v-63.98h13.18V2872.64z"/>
		<path class="st2" d="M2682.51,2852.69c0,6.3-1.11,11.82-3.34,16.57c-2.23,4.75-5.41,8.41-9.56,10.99
			c-4.15,2.58-8.9,3.87-14.26,3.87c-5.3,0-10.03-1.27-14.19-3.82c-4.16-2.55-7.38-6.19-9.67-10.92c-2.29-4.73-3.44-10.17-3.47-16.33
			v-3.16c0-6.3,1.14-11.84,3.41-16.63c2.27-4.79,5.48-8.47,9.62-11.03c4.15-2.56,8.88-3.85,14.22-3.85s10.07,1.28,14.22,3.85
			c4.15,2.56,7.35,6.24,9.62,11.03s3.41,10.32,3.41,16.59V2852.69z M2669.15,2849.79c0-6.71-1.2-11.81-3.6-15.29
			c-2.4-3.49-5.83-5.23-10.28-5.23c-4.42,0-7.84,1.72-10.24,5.16c-2.4,3.44-3.62,8.49-3.65,15.14v3.12c0,6.53,1.2,11.6,3.6,15.21
			s5.86,5.41,10.37,5.41c4.42,0,7.82-1.74,10.2-5.21s3.57-8.53,3.6-15.18V2849.79z"/>
		<path class="st2" d="M2705.27,2860.69v22.54h-13.18v-63.98h24.96c4.8,0,9.03,0.88,12.68,2.64c3.65,1.76,6.45,4.26,8.42,7.49
			c1.96,3.24,2.95,6.92,2.95,11.05c0,6.27-2.15,11.21-6.44,14.83c-4.29,3.62-10.23,5.43-17.82,5.43H2705.27z M2705.27,2850.01h11.78
			c3.49,0,6.15-0.82,7.98-2.46c1.83-1.64,2.75-3.98,2.75-7.03c0-3.13-0.92-5.67-2.77-7.6s-4.39-2.93-7.65-2.99h-12.09V2850.01z"/>
		<path class="st2" d="M2788.64,2855.41h-25.31v17.23h29.71v10.59h-42.89v-63.98h42.8v10.68h-29.62v15.25h25.31V2855.41z"/>
		<path class="st2" d="M2824.45,2859.81h-10.5v23.42h-13.18v-63.98h23.77c7.56,0,13.39,1.69,17.49,5.05
			c4.1,3.37,6.15,8.13,6.15,14.28c0,4.37-0.94,8.01-2.83,10.92c-1.89,2.92-4.75,5.24-8.59,6.97l13.84,26.15v0.62h-14.15
			L2824.45,2859.81z M2813.95,2849.13h10.63c3.31,0,5.87-0.84,7.69-2.53c1.82-1.68,2.72-4.01,2.72-6.97c0-3.02-0.86-5.39-2.57-7.12
			c-1.71-1.73-4.34-2.59-7.89-2.59h-10.59V2849.13z"/>
	</g>
	<g class="st1">
		<path class="st3" d="M1853.19,2977.06l-12.66-33.82h3.4l10.78,29.84h0.14l10.8-29.84h3.38l-12.66,33.82H1853.19z"/>
		<path class="st3" d="M1921.95,2977.06h-20.41v-33.82h20.41v2.91h-17.23v12.16h16.36v2.86h-16.36v12.98h17.23V2977.06z"/>
		<path class="st3" d="M1954.85,2960.07c0-10.59,5.88-17.37,15.07-17.37c7.15,0,12.8,4.66,13.71,11.27h-3.21
			c-0.94-4.88-5.25-8.3-10.5-8.3c-7.17,0-11.79,5.6-11.79,14.39c0,8.91,4.62,14.55,11.81,14.55c5.39,0,9.47-2.88,10.48-7.57h3.21
			c-1.2,6.59-6.38,10.55-13.71,10.55C1960.71,2977.6,1954.85,2970.78,1954.85,2960.07z"/>
		<path class="st3" d="M2024.52,2977.06v-30.91h-11.16v-2.91h25.55v2.91h-11.18v30.91H2024.52z"/>
		<path class="st3" d="M2098.86,2960.16c0,10.71-5.93,17.44-15.38,17.44c-9.42,0-15.35-6.73-15.35-17.44s5.93-17.46,15.35-17.46
			S2098.86,2949.45,2098.86,2960.16z M2071.42,2960.16c0,8.86,4.66,14.46,12.07,14.46s12.09-5.6,12.09-14.46
			c0-8.88-4.69-14.48-12.09-14.48S2071.42,2951.28,2071.42,2960.16z"/>
		<path class="st3" d="M2135.82,2977.06h-3.19v-33.82h11.93c6.61,0,10.83,3.87,10.83,9.89c0,4.78-2.72,8.39-7.24,9.56l8.2,14.37
			h-3.75l-7.78-13.85c-0.12,0-0.35,0-0.52,0h-8.48V2977.06z M2135.82,2960.37h8.48c4.92,0,7.78-2.63,7.78-7.15
			c0-4.48-2.98-7.13-7.9-7.13h-8.37V2960.37z"/>
		<path class="st3" d="M2228.01,2977.06v-33.82h3.19v33.82H2228.01z"/>
		<path class="st3" d="M2286.46,2977.06h-20.13v-33.82h3.19v30.91h16.95V2977.06z"/>
		<path class="st3" d="M2339.92,2977.06h-20.13v-33.82h3.19v30.91h16.95V2977.06z"/>
		<path class="st3" d="M2374.72,2965.06c0,5.67,3.7,9.56,9.89,9.56c6.21,0,9.89-3.89,9.89-9.56v-21.82h3.21v22.01
			c0,7.29-4.97,12.35-13.1,12.35s-13.08-5.06-13.08-12.35v-22.01h3.19V2965.06z"/>
		<path class="st3" d="M2434.38,2967.87c0.35,4.05,4.17,6.82,9.47,6.82c5.06,0,8.7-2.77,8.7-6.56c0-3.16-2.18-5.04-7.2-6.3
			l-4.2-1.08c-6.26-1.59-9.05-4.24-9.05-8.7c0-5.46,4.92-9.35,11.58-9.35c6.59,0,11.41,3.89,11.6,9.26h-3.21
			c-0.3-3.82-3.68-6.35-8.48-6.35c-4.69,0-8.16,2.6-8.16,6.33c0,2.91,2.11,4.62,7.08,5.88l3.66,0.94c6.8,1.71,9.66,4.31,9.66,9.02
			c0,5.93-4.78,9.82-12.26,9.82c-7.08,0-12.05-3.91-12.4-9.73H2434.38z"/>
		<path class="st3" d="M2497.99,2977.06v-30.91h-11.16v-2.91h25.55v2.91h-11.18v30.91H2497.99z"/>
		<path class="st3" d="M2548.4,2977.06h-3.19v-33.82h11.93c6.61,0,10.83,3.87,10.83,9.89c0,4.78-2.72,8.39-7.24,9.56l8.2,14.37
			h-3.75l-7.78-13.85c-0.12,0-0.35,0-0.52,0h-8.48V2977.06z M2548.4,2960.37h8.48c4.92,0,7.78-2.63,7.78-7.15
			c0-4.48-2.98-7.13-7.9-7.13h-8.37V2960.37z"/>
		<path class="st3" d="M2620.7,2966.7h-14.2l-3.75,10.36h-3.4l12.66-33.82h3.19l12.63,33.82h-3.38L2620.7,2966.7z M2607.46,2963.93
			h12.28l-6.07-16.73h-0.14L2607.46,2963.93z"/>
		<path class="st3" d="M2664.48,2977.06v-30.91h-11.16v-2.91h25.55v2.91h-11.18v30.91H2664.48z"/>
		<path class="st3" d="M2711.7,2977.06v-33.82h3.19v33.82H2711.7z"/>
		<path class="st3" d="M2779.38,2960.16c0,10.71-5.93,17.44-15.38,17.44c-9.42,0-15.35-6.73-15.35-17.44s5.93-17.46,15.35-17.46
			S2779.38,2949.45,2779.38,2960.16z M2751.94,2960.16c0,8.86,4.66,14.46,12.07,14.46s12.09-5.6,12.09-14.46
			c0-8.88-4.69-14.48-12.09-14.48S2751.94,2951.28,2751.94,2960.16z"/>
		<path class="st3" d="M2813.15,2977.06v-33.82h3.16l19.83,28.24h0.16v-28.24h3.16v33.82h-3.09l-19.9-28.27h-0.16v28.27H2813.15z"/>
	</g>
	<g>
		<g>
			<g>
				<g>
					<rect x="3204.25" y="762.35" class="st4" width="164.4" height="210.48"/>
					<g>
						<rect x="3214.2" y="772.04" class="st5" width="144.51" height="191.11"/>
					</g>
				</g>
			</g>
			<g>
				<g>
					<rect x="3379.73" y="580.15" class="st4" width="276.45" height="342.42"/>
					<g>
						<rect x="3395.74" y="595.59" class="st5" width="244.43" height="311.53"/>
					</g>
				</g>
			</g>
		</g>
		<g>
			<path class="st4" d="M1771.09,1568.25H798.27c-32.01,0-57.96-25.95-57.96-57.96V494.59c0-32.01,25.95-57.96,57.96-57.96h972.82
				c32.01,0,57.96,25.95,57.96,57.96v1015.7C1829.05,1542.3,1803.1,1568.25,1771.09,1568.25z"/>
			<linearGradient id="SVGID_1_" gradientUnits="userSpaceOnUse" x1="1267.694" y1="247.3287" x2="1281.4392" y2="1669.875">
				<stop  offset="0" style="stop-color:#B0D8FF"/>
				<stop  offset="0.0154" style="stop-color:#B3D9FF"/>
				<stop  offset="0.145" style="stop-color:#C4E1FF"/>
				<stop  offset="0.3014" style="stop-color:#D1E7FF"/>
				<stop  offset="0.5117" style="stop-color:#D8EAFF"/>
				<stop  offset="1" style="stop-color:#DAEBFF"/>
			</linearGradient>
			<path class="st6" d="M1755.42,1568.25H794.75c-30.06,0-54.43-24.37-54.43-54.43V510.41c0-30.06,24.37-54.43,54.43-54.43h960.67
				c30.06,0,54.43,24.37,54.43,54.43v1003.41C1809.85,1543.88,1785.48,1568.25,1755.42,1568.25z"/>
			<path class="st7" d="M1751.68,711.73H805.42c-10.36,0-18.77-8.4-18.77-18.77V522.18c0-10.36,8.4-18.77,18.77-18.77h946.26
				c10.36,0,18.77,8.4,18.77,18.77v170.78C1770.45,703.33,1762.05,711.73,1751.68,711.73z"/>
			<path class="st5" d="M1746.24,706.29H799.98c-10.36,0-18.77-8.4-18.77-18.77V516.74c0-10.36,8.4-18.77,18.77-18.77h946.26
				c10.36,0,18.77,8.4,18.77,18.77v170.78C1765.01,697.89,1756.61,706.29,1746.24,706.29z"/>
			<path class="st7" d="M1752.17,1533.05H805.91c-10.36,0-18.77-8.4-18.77-18.77v-170.78c0-10.36,8.4-18.77,18.77-18.77h946.26
				c10.36,0,18.77,8.4,18.77,18.77v170.78C1770.94,1524.65,1762.54,1533.05,1752.17,1533.05z"/>
			<path class="st5" d="M1746.24,1525.53H799.98c-10.36,0-18.77-8.4-18.77-18.77v-170.78c0-10.36,8.4-18.77,18.77-18.77h946.26
				c10.36,0,18.77,8.4,18.77,18.77v170.78C1765.01,1517.13,1756.61,1525.53,1746.24,1525.53z"/>
			<g>
				<path class="st7" d="M1110.24,1375.13h-280.6c-7.98,0-14.45-6.47-14.45-14.45l0,0c0-7.98,6.47-14.45,14.45-14.45h280.6
					c7.98,0,14.45,6.47,14.45,14.45l0,0C1124.69,1368.66,1118.22,1375.13,1110.24,1375.13z"/>
				<path class="st7" d="M1728.45,1443.35H829.64c-7.98,0-14.45-6.47-14.45-14.45l0,0c0-7.98,6.47-14.45,14.45-14.45h898.81
					c7.98,0,14.45,6.47,14.45,14.45l0,0C1742.9,1436.88,1736.43,1443.35,1728.45,1443.35z"/>
				<path class="st8" d="M1728.45,1496.52H829.64c-7.98,0-14.45-6.47-14.45-14.45v0c0-7.98,6.47-14.45,14.45-14.45h898.81
					c7.98,0,14.45,6.47,14.45,14.45v0C1742.9,1490.05,1736.43,1496.52,1728.45,1496.52z"/>
			</g>
			<path class="st7" d="M786.66,1278.05V760.5c0-7.72,6.26-13.97,13.97-13.97h180.36c7.72,0,13.97,6.26,13.97,13.97v517.55
				c0,7.72-6.26,13.97-13.97,13.97H800.63C792.91,1292.02,786.66,1285.76,786.66,1278.05z"/>
			<path class="st5" d="M782.44,1270.85V753.31c0-7.72,6.26-13.97,13.97-13.97h180.36c7.72,0,13.97,6.26,13.97,13.97v517.55
				c0,7.72-6.26,13.97-13.97,13.97H796.42C788.7,1284.83,782.44,1278.57,782.44,1270.85z"/>
			<path class="st7" d="M1040.55,1265.81V772.73c0-14.47,11.73-26.21,26.21-26.21h680.18c14.47,0,26.21,11.73,26.21,26.21v493.08
				c0,14.47-11.73,26.21-26.21,26.21h-680.18C1052.28,1292.02,1040.55,1280.29,1040.55,1265.81z"/>
			<path class="st5" d="M1032.42,1258.62V765.54c0-14.47,11.73-26.21,26.21-26.21h680.18c14.47,0,26.21,11.73,26.21,26.21v493.08
				c0,14.47-11.73,26.21-26.21,26.21h-680.18C1044.15,1284.83,1032.42,1273.09,1032.42,1258.62z"/>
			<g>
				<path class="st9" d="M1271.07,790.94h-196.68c-7.49,0-13.56-6.07-13.56-13.56v-1.78c0-7.49,6.07-13.56,13.56-13.56h196.68
					c7.49,0,13.56,6.07,13.56,13.56v1.78C1284.63,784.87,1278.56,790.94,1271.07,790.94z"/>
				<path class="st7" d="M1717.69,859.16h-642.9c-7.71,0-13.96-6.25-13.96-13.96v-0.98c0-7.71,6.25-13.96,13.96-13.96h642.9
					c7.71,0,13.96,6.25,13.96,13.96v0.98C1731.65,852.91,1725.4,859.16,1717.69,859.16z"/>
				<path class="st8" d="M1717.69,912.34h-642.9c-7.71,0-13.96-6.25-13.96-13.96v-0.98c0-7.71,6.25-13.96,13.96-13.96h642.9
					c7.71,0,13.96,6.25,13.96,13.96v0.98C1731.65,906.09,1725.4,912.34,1717.69,912.34z"/>
			</g>
			<g>
				<path class="st9" d="M1271.07,965.5h-196.68c-7.49,0-13.56-6.07-13.56-13.56v-1.78c0-7.49,6.07-13.56,13.56-13.56h196.68
					c7.49,0,13.56,6.07,13.56,13.56v1.78C1284.63,959.43,1278.56,965.5,1271.07,965.5z"/>
				<path class="st7" d="M1717.69,1033.72h-642.9c-7.71,0-13.96-6.25-13.96-13.96v-0.98c0-7.71,6.25-13.96,13.96-13.96h642.9
					c7.71,0,13.96,6.25,13.96,13.96v0.98C1731.65,1027.47,1725.4,1033.72,1717.69,1033.72z"/>
				<path class="st8" d="M1717.69,1086.9h-642.9c-7.71,0-13.96-6.25-13.96-13.96v-0.98c0-7.71,6.25-13.96,13.96-13.96h642.9
					c7.71,0,13.96,6.25,13.96,13.96v0.98C1731.65,1080.65,1725.4,1086.9,1717.69,1086.9z"/>
			</g>
			<g>
				<path class="st9" d="M1271.07,1140.07h-196.68c-7.49,0-13.56-6.07-13.56-13.56v-1.78c0-7.49,6.07-13.56,13.56-13.56h196.68
					c7.49,0,13.56,6.07,13.56,13.56v1.78C1284.63,1134,1278.56,1140.07,1271.07,1140.07z"/>
				<path class="st7" d="M1717.69,1208.29h-642.9c-7.71,0-13.96-6.25-13.96-13.96v-0.98c0-7.71,6.25-13.96,13.96-13.96h642.9
					c7.71,0,13.96,6.25,13.96,13.96v0.98C1731.65,1202.04,1725.4,1208.29,1717.69,1208.29z"/>
				<path class="st8" d="M1717.69,1261.46h-642.9c-7.71,0-13.96-6.25-13.96-13.96v-0.98c0-7.71,6.25-13.96,13.96-13.96h642.9
					c7.71,0,13.96,6.25,13.96,13.96v0.98C1731.65,1255.22,1725.4,1261.46,1717.69,1261.46z"/>
			</g>
			<g>
				<path class="st10" d="M955.51,928.26H815.87c-10.99,0-19.91-8.91-19.91-19.91V781.95c0-10.99,8.91-19.91,19.91-19.91h139.64
					c10.99,0,19.91,8.91,19.91,19.91v126.41C975.42,919.35,966.5,928.26,955.51,928.26z"/>
				<path class="st10" d="M955.51,1124.91H815.87c-10.99,0-19.91-8.91-19.91-19.91V978.6c0-10.99,8.91-19.91,19.91-19.91h139.64
					c10.99,0,19.91,8.91,19.91,19.91v126.41C975.42,1116,966.5,1124.91,955.51,1124.91z"/>
				<path class="st10" d="M1238.64,686.02h-176.1c-10.91,0-19.76-8.85-19.76-19.76V644.4c0-10.91,8.85-19.76,19.76-19.76h176.1
					c10.91,0,19.76,8.85,19.76,19.76v21.85C1258.4,677.17,1249.56,686.02,1238.64,686.02z"/>
				<path class="st10" d="M998.55,686.02h-176.1c-10.91,0-19.76-8.85-19.76-19.76V644.4c0-10.91,8.85-19.76,19.76-19.76h176.1
					c10.91,0,19.76,8.85,19.76,19.76v21.85C1018.31,677.17,1009.46,686.02,998.55,686.02z"/>
				<path class="st10" d="M1480.89,686.02h-176.1c-10.91,0-19.76-8.85-19.76-19.76V644.4c0-10.91,8.85-19.76,19.76-19.76h176.1
					c10.91,0,19.76,8.85,19.76,19.76v21.85C1500.65,677.17,1491.8,686.02,1480.89,686.02z"/>
				<path class="st10" d="M1723.14,686.02h-176.1c-10.91,0-19.76-8.85-19.76-19.76V644.4c0-10.91,8.85-19.76,19.76-19.76h176.1
					c10.91,0,19.76,8.85,19.76,19.76v21.85C1742.9,677.17,1734.05,686.02,1723.14,686.02z"/>
			</g>
			<path class="st10" d="M1721.07,603.81H818.4c-12.06,0-21.83-9.77-21.83-21.83v-41.82c0-12.06,9.77-21.83,21.83-21.83h902.67
				c12.06,0,21.83,9.77,21.83,21.83v41.82C1742.9,594.04,1733.12,603.81,1721.07,603.81z"/>
		</g>
		<ellipse class="st11" cx="1846.65" cy="2464.01" rx="290" ry="78.02"/>
		<ellipse class="st11" cx="1131.16" cy="2342.42" rx="139.04" ry="43.58"/>
		<ellipse class="st11" cx="2113.36" cy="2371.87" rx="238.61" ry="58.71"/>
		<ellipse class="st11" cx="3460.27" cy="2273.6" rx="375.98" ry="40.93"/>
		<ellipse class="st11" cx="2721.97" cy="2480.2" rx="108.55" ry="33.78"/>
		<rect x="701.31" y="2145.85" class="st12" width="2967.79" height="19.77"/>
		<g>
			<path class="st13" d="M3793.42,2274.89h-655.81c-20.57,0-37.25-16.68-37.25-37.25v-1128.4c0-20.57,16.68-37.25,37.25-37.25
				h655.81c20.57,0,37.25,16.68,37.25,37.25v1128.4C3830.67,2258.22,3813.99,2274.89,3793.42,2274.89z"/>
			<g>
				<rect x="3167.08" y="1954.22" class="st14" width="298.44" height="251.62"/>
				<rect x="3465.52" y="1954.22" class="st14" width="296.1" height="251.62"/>
			</g>
			<rect x="3167.08" y="1136.29" class="st15" width="594.54" height="217.53"/>
			<rect x="3167.08" y="1408.94" class="st15" width="594.54" height="217.53"/>
			<rect x="3167.08" y="1681.58" class="st15" width="594.54" height="217.53"/>
			<ellipse class="st13" cx="3400.76" cy="2029.12" rx="21.07" ry="20.05"/>
			<ellipse class="st13" cx="3534.04" cy="2029.12" rx="21.07" ry="20.05"/>
			<rect x="3182.29" y="1184.81" class="st16" width="49.74" height="165.95"/>
			<rect x="3232.03" y="1184.81" class="st16" width="49.74" height="165.95"/>
			<rect x="3281.77" y="1184.81" class="st16" width="49.74" height="165.95"/>
			<rect x="3331.51" y="1184.81" class="st16" width="49.74" height="165.95"/>
			<rect x="3381.25" y="1184.81" class="st16" width="49.74" height="165.95"/>
			<rect x="3476.18" y="1459.63" class="st16" width="49.74" height="165.95"/>
			<rect x="3525.92" y="1459.63" class="st16" width="49.74" height="165.95"/>
			
				<rect x="3290.88" y="1467.38" transform="matrix(-1.836970e-16 1 -1 -1.836970e-16 4869.1162 -1759.9707)" class="st16" width="47.33" height="174.38"/>
			
				<rect x="3307.85" y="1420.05" transform="matrix(-1.836970e-16 1 -1 -1.836970e-16 4838.7515 -1824.2753)" class="st16" width="47.33" height="174.38"/>
			
				<rect x="3310.48" y="1514.72" transform="matrix(-1.836970e-16 1 -1 -1.836970e-16 4936.0542 -1732.2395)" class="st16" width="47.33" height="174.38"/>
			<rect x="3575.66" y="1459.63" class="st16" width="49.74" height="165.95"/>
			<rect x="3625.4" y="1459.63" class="st16" width="49.74" height="165.95"/>
			<rect x="3675.14" y="1459.63" class="st16" width="49.74" height="165.95"/>
			<rect x="3217.7" y="1733.16" class="st16" width="49.74" height="165.95"/>
			<rect x="3267.44" y="1733.16" class="st16" width="49.74" height="165.95"/>
			<rect x="3317.18" y="1733.16" class="st16" width="49.74" height="165.95"/>
			<rect x="3366.92" y="1733.16" class="st16" width="49.74" height="165.95"/>
			<rect x="3416.66" y="1733.16" class="st16" width="49.74" height="165.95"/>
			<polygon class="st16" points="3539.26,1337.41 3492.6,1353.82 3432.16,1198.16 3478.81,1181.75 			"/>
			<polygon class="st16" points="3592.81,1337.41 3546.15,1353.82 3485.71,1198.16 3532.36,1181.75 			"/>
			<polygon class="st16" points="3691.26,1322.23 3651.57,1350.76 3546.47,1218.33 3586.16,1189.81 			"/>
			<ellipse class="st16" cx="3619.58" cy="1781.25" rx="74.6" ry="70.99"/>
			<path class="st17" d="M3619.58,1866.64c-49.56,0-89.73-38.23-89.73-85.39s40.17-85.39,89.73-85.39"/>
			<rect x="3562.89" y="1884.88" class="st16" width="107.93" height="14.22"/>
			<rect x="3612.55" y="1847.34" class="st16" width="7.03" height="40.57"/>
		</g>
		<g>
			<g>
				<path class="st9" d="M1207.65,2162.89c0,0,107.76-5.84,107.88-27.74c0.1-17.03-65.82-2.62-65.82-2.62s72.1-20.92,105.43-38.04
					c7.31-3.75,14.77-7.81,19.89-14.24c5.12-6.43,7.35-15.87,3.2-22.97c-5.61-9.61-19.07-10.39-30.12-9.05
					c-44.38,5.36-75.58,29.09-115.54,49.15c29.25-14.69,55.26-33.48,79.64-55.26c22.41-20.02,48.49-38.81,63.43-65.58
					c9.36-16.78,13.08-41.55-3.5-55.35c-16.07-13.38-39.1-7.13-56.75-0.93c-47.41,16.65-88.95,49.71-116.26,91.84
					c7.03-19.69,12.52-39.93,16.39-60.48c1.56-8.28,2.14-18.49-4.71-23.4c-8.87-6.36-20.72,2.15-27.62,10.61
					c-16.72,20.5-29.48,44.22-37.36,69.48c5.44-56.57,10.83-114.25-1.48-169.73c-2.81-12.67-6.69-25.46-14.6-35.75
					c-7.91-10.29-20.58-17.72-33.48-16.31c-12.22,1.33-22.31,10.01-30.5,19.18c-26.43,29.56-41.91,68.7-42.87,108.34
					c-0.96,39.64,12.61,79.48,37.58,110.29c-13.13-13.78-27.98-25.93-44.08-36.08c-3.62-2.28-8.93-4.24-11.65-0.94
					c-1.4,1.7-1.38,4.14-1.18,6.34c2.48,26.9,20.52,49.45,37.79,70.22c-35.01-40.87-90.1-63.66-143.76-59.47
					c-6.48,0.51-13.84,1.95-17.14,7.55c-1.91,3.24-1.99,7.24-1.59,10.98c2.86,26.98,26.66,46.54,50.07,60.26
					c19.69,11.54,40.42,21.19,61.11,30.82c-11.83-1.69-23.84-2.11-35.75-1.26c-2.72,0.19-5.76,0.63-7.42,2.79
					c-3.13,4.09,1.28,9.63,5.46,12.65c29.9,21.59,67.57,32.18,104.34,29.33"/>
				
					<linearGradient id="SVGID_2_" gradientUnits="userSpaceOnUse" x1="1148.0681" y1="1812.5688" x2="1148.0681" y2="2113.1643" gradientTransform="matrix(0.9992 -0.0396 0.0396 0.9992 -69.0266 109.5763)">
					<stop  offset="0.3656" style="stop-color:#86CF94"/>
					<stop  offset="0.9892" style="stop-color:#008166"/>
				</linearGradient>
				<path class="st18" d="M1330.01,1961.72c1.32-0.96,2.63,1.15,1.35,2.12c-34.27,25.9-65.96,55.01-94.03,87.54
					c-28.3,32.8-50.88,68.62-72.96,105.72c-0.8,1.34-2.8,0.27-2.13-1.14C1198.94,2079,1261.41,2011.34,1330.01,1961.72
					L1330.01,1961.72z M1174.94,1989.51c-19.69,50.45-31.51,113.99-27.55,168.28c0.1,1.37,2.11,1.29,2.13-0.08
					c0.88-54.65,9.03-115.75,28.28-167.12C1178.41,1988.97,1175.58,1987.89,1174.94,1989.51L1174.94,1989.51z M1106.71,1878.07
					c-9.28,92.6-1.8,191.33,23.01,281.12c0.41,1.5,2.55,0.74,2.26-0.72c-9.42-47.09-17.94-94.12-21.86-142.04
					c-3.77-46.08-3.39-92.05-1.78-138.2C1108.38,1877.31,1106.81,1877.14,1106.71,1878.07L1106.71,1878.07z M1023,2016.43
					c27.81,39.52,58.64,112.62,95.16,144.49c1.49,1.3,3.36-0.8,2.06-2.23c-33.01-36.31-65.37-104.37-94.98-143.69
					C1024.23,2013.65,1022.01,2015.01,1023,2016.43L1023,2016.43z M1322.77,2077.67c-55.17,24.88-112.05,54.16-158.8,93.05
					c-1.45,1.21-0.04,3.67,1.63,2.56c51.47-34.18,101.28-67.82,157.89-93.35C1324.86,2079.31,1324.16,2077.04,1322.77,2077.67
					L1322.77,2077.67z M979.71,2070.85c40.17,23.99,83.13,75.22,126.93,91.95c1.38,0.53,2.52-1.4,1.11-2.09
					c-42.44-20.74-85.82-68.54-126.88-92.04C979.48,2067.88,978.35,2070.04,979.71,2070.85L979.71,2070.85z"/>
			</g>
			<g>
				<rect x="1030.42" y="2156.47" class="st4" width="235.09" height="196.61"/>
				<rect x="1219.32" y="2156.47" class="st10" width="46.19" height="196.61"/>
			</g>
		</g>
		<g>
			<path class="st4" d="M2970,1444.52H1962.73c-28.44,0-51.49-23.05-51.49-51.49V620.1c0-28.44,23.05-51.49,51.49-51.49H2970
				c28.44,0,51.49,23.05,51.49,51.49v772.93C3021.5,1421.46,2998.44,1444.52,2970,1444.52z"/>
			<linearGradient id="SVGID_3_" gradientUnits="userSpaceOnUse" x1="2456.4255" y1="418.7511" x2="2456.4255" y2="1555.2008">
				<stop  offset="0" style="stop-color:#B0D8FF"/>
				<stop  offset="0.0154" style="stop-color:#B3D9FF"/>
				<stop  offset="0.145" style="stop-color:#C4E1FF"/>
				<stop  offset="0.3014" style="stop-color:#D1E7FF"/>
				<stop  offset="0.5117" style="stop-color:#D8EAFF"/>
				<stop  offset="1" style="stop-color:#DAEBFF"/>
			</linearGradient>
			<path class="st19" d="M2951.2,1444.52h-989.55c-27.84,0-50.41-22.57-50.41-50.41V640.13c0-27.84,22.57-50.41,50.41-50.41h989.55
				c27.84,0,50.41,22.57,50.41,50.41v753.98C3001.61,1421.95,2979.04,1444.52,2951.2,1444.52z"/>
			<g>
				<g>
					<path class="st9" d="M2223.83,678.05h-122.49c-4.22,0-7.64-4.03-7.64-8.99l0,0c0-4.97,3.42-8.99,7.64-8.99h122.49
						c4.22,0,7.64,4.03,7.64,8.99l0,0C2231.47,674.03,2228.05,678.05,2223.83,678.05z"/>
				</g>
				<g>
					<path class="st20" d="M2343.21,758.64h-207.63c-4.22,0-7.64-4.03-7.64-8.99l0,0c0-4.97,3.42-8.99,7.64-8.99h207.63
						c4.22,0,7.64,4.03,7.64,8.99l0,0C2350.85,754.61,2347.43,758.64,2343.21,758.64z"/>
				</g>
				<g>
					<path class="st9" d="M2426.96,758.64h316.85c4.22,0,7.64-4.03,7.64-8.99l0,0c0-4.97-3.42-8.99-7.64-8.99h-316.85
						c-4.22,0-7.64,4.03-7.64,8.99l0,0C2419.32,754.61,2422.74,758.64,2426.96,758.64z"/>
				</g>
				<g>
					<path class="st20" d="M2343.21,839.23h-207.63c-4.22,0-7.64-4.03-7.64-8.99v0c0-4.97,3.42-8.99,7.64-8.99h207.63
						c4.22,0,7.64,4.03,7.64,8.99v0C2350.85,835.2,2347.43,839.23,2343.21,839.23z"/>
				</g>
				<g>
					<g>
						<path class="st9" d="M2308.98,919.82h-207.63c-4.22,0-7.64-4.03-7.64-8.99l0,0c0-4.97,3.42-8.99,7.64-8.99h207.63
							c4.22,0,7.64,4.03,7.64,8.99l0,0C2316.62,915.79,2313.2,919.82,2308.98,919.82z"/>
					</g>
				</g>
				<g>
					<path class="st20" d="M2749.29,919.82h-356.56c-4.22,0-7.64-4.03-7.64-8.99l0,0c0-4.97,3.42-8.99,7.64-8.99h356.56
						c4.22,0,7.64,4.03,7.64,8.99l0,0C2756.93,915.79,2753.51,919.82,2749.29,919.82z"/>
				</g>
				<g>
					<path class="st20" d="M2522.74,839.23h-104.93c-4.22,0-7.64-4.03-7.64-8.99v0c0-4.97,3.42-8.99,7.64-8.99h104.93
						c4.22,0,7.64,4.03,7.64,8.99v0C2530.38,835.2,2526.96,839.23,2522.74,839.23z"/>
				</g>
				<g>
					<path class="st20" d="M2706.95,839.23h-104.93c-4.22,0-7.64-4.03-7.64-8.99v0c0-4.97,3.42-8.99,7.64-8.99h104.93
						c4.22,0,7.64,4.03,7.64,8.99v0C2714.59,835.2,2711.17,839.23,2706.95,839.23z"/>
				</g>
				<g>
					<path class="st20" d="M2240.26,1000.41h-136.4c-4.22,0-7.64-4.03-7.64-8.99l0,0c0-4.97,3.42-8.99,7.64-8.99h136.4
						c4.22,0,7.64,4.03,7.64,8.99l0,0C2247.9,996.38,2244.48,1000.41,2240.26,1000.41z"/>
				</g>
				<g>
					<g>
						<path class="st9" d="M2523.14,1000.41H2315.5c-4.22,0-7.64-4.03-7.64-8.99l0,0c0-4.97,3.42-8.99,7.64-8.99h207.63
							c4.22,0,7.64,4.03,7.64,8.99l0,0C2530.78,996.38,2527.36,1000.41,2523.14,1000.41z"/>
					</g>
				</g>
				<g>
					<path class="st20" d="M2674.55,1000.41h-77.55c-4.22,0-7.64-4.03-7.64-8.99l0,0c0-4.97,3.42-8.99,7.64-8.99h77.55
						c4.22,0,7.64,4.03,7.64,8.99l0,0C2682.19,996.38,2678.77,1000.41,2674.55,1000.41z"/>
				</g>
				<g>
					<path class="st20" d="M2368.69,1080.99h-121.65c-4.22,0-7.64-4.03-7.64-8.99l0,0c0-4.97,3.42-8.99,7.64-8.99h121.65
						c4.22,0,7.64,4.03,7.64,8.99l0,0C2376.33,1076.97,2372.91,1080.99,2368.69,1080.99z"/>
				</g>
				<g>
					<path class="st20" d="M2659.68,1080.99h-207.63c-4.22,0-7.64-4.03-7.64-8.99l0,0c0-4.97,3.42-8.99,7.64-8.99h207.63
						c4.22,0,7.64,4.03,7.64,8.99l0,0C2667.32,1076.97,2663.9,1080.99,2659.68,1080.99z"/>
				</g>
				<g>
					<path class="st20" d="M2593.12,1161.58h-389.07c-4.22,0-7.64-4.03-7.64-8.99l0,0c0-4.97,3.42-8.99,7.64-8.99h389.07
						c4.22,0,7.64,4.03,7.64,8.99l0,0C2600.76,1157.56,2597.34,1161.58,2593.12,1161.58z"/>
				</g>
				<g>
					<path class="st20" d="M2884.11,1161.58h-235.02c-4.22,0-7.64-4.03-7.64-8.99l0,0c0-4.97,3.42-8.99,7.64-8.99h235.02
						c4.22,0,7.64,4.03,7.64,8.99l0,0C2891.75,1157.56,2888.33,1161.58,2884.11,1161.58z"/>
				</g>
				<g>
					<path class="st20" d="M2308.98,1242.17h-207.63c-4.22,0-7.64-4.03-7.64-8.99v0c0-4.97,3.42-8.99,7.64-8.99h207.63
						c4.22,0,7.64,4.03,7.64,8.99v0C2316.62,1238.14,2313.2,1242.17,2308.98,1242.17z"/>
				</g>
				<g>
					<g>
						<path class="st9" d="M2560.24,1242.17h-207.63c-4.22,0-7.64-4.03-7.64-8.99v0c0-4.97,3.42-8.99,7.64-8.99h207.63
							c4.22,0,7.64,4.03,7.64,8.99v0C2567.88,1238.14,2564.46,1242.17,2560.24,1242.17z"/>
					</g>
				</g>
				<g>
					<path class="st20" d="M2580.23,1322.76h-315.37c-4.22,0-7.64-4.03-7.64-8.99l0,0c0-4.97,3.42-8.99,7.64-8.99h315.37
						c4.22,0,7.64,4.03,7.64,8.99l0,0C2587.88,1318.73,2584.45,1322.76,2580.23,1322.76z"/>
				</g>
				<g>
					<g>
						<rect x="1992.21" y="660.07" class="st20" width="15.28" height="17.99"/>
					</g>
					<g>
						<rect x="1992.21" y="740.65" class="st20" width="15.28" height="17.99"/>
					</g>
					<g>
						<rect x="1992.21" y="821.24" class="st20" width="15.28" height="17.99"/>
					</g>
					<g>
						<rect x="1992.21" y="901.83" class="st20" width="15.28" height="17.99"/>
					</g>
					<g>
						<rect x="1992.21" y="982.42" class="st20" width="15.28" height="17.99"/>
					</g>
					<g>
						<rect x="1992.21" y="1063.01" class="st20" width="15.28" height="17.99"/>
					</g>
					<g>
						<rect x="1992.21" y="1103.3" class="st20" width="15.28" height="17.99"/>
					</g>
					<g>
						<rect x="1992.21" y="1143.6" class="st20" width="15.28" height="17.99"/>
					</g>
					<g>
						<rect x="1992.21" y="1183.89" class="st20" width="15.28" height="17.99"/>
					</g>
					<g>
						<rect x="1992.21" y="1224.18" class="st20" width="15.28" height="17.99"/>
					</g>
					<g>
						<rect x="1992.21" y="1264.48" class="st20" width="15.28" height="17.99"/>
					</g>
					<g>
						<rect x="1992.21" y="1304.77" class="st20" width="15.28" height="17.99"/>
					</g>
					<g>
						<rect x="1992.21" y="1345.07" class="st20" width="15.28" height="17.99"/>
					</g>
				</g>
				<g>
					<g>
						<path class="st20" d="M2803.83,1359.44l-55.69-27.84c-1.72-0.86-2.84-2.85-2.84-5.06v-5.98c0-2.2,1.12-4.2,2.84-5.06
							l55.69-27.84c3.08-1.54,6.49,1.12,6.49,5.06v2.14c0,2.23-1.14,4.23-2.89,5.08l-38.24,18.53c-3.86,1.87-3.86,8.3,0,10.16
							l38.24,18.53c1.75,0.85,2.89,2.85,2.89,5.08v2.14C2810.32,1358.32,2806.91,1360.98,2803.83,1359.44z"/>
					</g>
					<g>
						<path class="st20" d="M2854.32,1271.94l-25.73,104.69c-0.58,2.35-2.41,3.97-4.49,3.97l0,0c-3.11,0-5.35-3.51-4.49-7.02
							l25.73-104.69c0.58-2.35,2.41-3.97,4.49-3.97l0,0C2852.94,1264.92,2855.18,1268.43,2854.32,1271.94z"/>
					</g>
					<g>
						<path class="st20" d="M2925.81,1331.6l-55.69,27.84c-3.08,1.54-6.49-1.12-6.49-5.06v-2.14c0-2.23,1.14-4.23,2.89-5.08
							l38.24-18.53c3.86-1.87,3.86-8.3,0-10.16l-38.24-18.53c-1.75-0.85-2.89-2.85-2.89-5.08v-2.14c0-3.94,3.42-6.6,6.49-5.06
							l55.69,27.84c1.72,0.86,2.84,2.85,2.84,5.06v5.98C2928.65,1328.75,2927.53,1330.74,2925.81,1331.6z"/>
					</g>
				</g>
			</g>
		</g>
		<g>
			<g>
				<defs>
					<path id="SVGID_4_" d="M2093.83,2008.4v133.65h44.05v-120.29C2122.45,2010.06,2106.17,2007.78,2093.83,2008.4z"/>
				</defs>
				<use xlink:href="#SVGID_4_"  style="overflow:visible;fill:#B0D8FF;"/>
				<clipPath id="SVGID_5_">
					<use xlink:href="#SVGID_4_"  style="overflow:visible;"/>
				</clipPath>
				<path class="st21" d="M2083.6,2033.64c0,0,37.96,6.67,59.73,47.11c21.78,40.44,39.76-4.73,35.56-23.23
					c-4.2-18.5-2-37.43-13.19-51.63c-11.19-14.2-32.56-34.42-61.73-26.67c-29.17,7.74-32.96,3.44-31.37,20.87
					c1.6,17.42,4.4,36.14,4.4,36.14"/>
			</g>
			<ellipse class="st22" cx="1955.4" cy="2352.17" rx="34.07" ry="37.64"/>
			<path class="st22" d="M2152.02,2386c0,20.79-15.25,37.64-34.07,37.64c-18.81,0-34.07-16.85-34.07-37.64
				c0-20.79,15.26-37.65,34.07-37.65C2136.77,2348.35,2152.02,2365.2,2152.02,2386z"/>
			<path class="st22" d="M2312.85,2352.17c0,20.79-15.25,37.64-34.07,37.64c-18.81,0-34.06-16.85-34.06-37.64
				c0-20.79,15.25-37.64,34.06-37.64C2297.6,2314.53,2312.85,2331.38,2312.85,2352.17z"/>
			<path class="st23" d="M2085.76,2141.39c0,0,29.73-12.12,61.3,0l0.86,42.57l154.68,127.59v30.31h-45.66l-0.61-23.31l-118.44-92.55
				l0.73,115.86l-5.87,27.22h-30.83l-5.69-26.95l-1.28-112.9l-117.82,88.38l-0.49,22.64l-42.33,0.27v-32.07L2086,2184.51v-25.53
				L2085.76,2141.39z"/>
		</g>
		<g>
			<defs>
				<path id="SVGID_6_" d="M2196.05,1351.59c0,0,50.32-17.85,125.17,0c74.86,17.85,119.58,92.4,122.07,152.65
					s-24.54,430.65-123.62,524.3c-99.08,93.65-349.11,47.52-400.21,27.95c-51.1-19.57-88.84-96.44-88.84-96.44l256.13-182.17
					l13.63-390.89L2196.05,1351.59z"/>
			</defs>
			<use xlink:href="#SVGID_6_"  style="overflow:visible;fill:#006DFE;"/>
			<clipPath id="SVGID_7_">
				<use xlink:href="#SVGID_6_"  style="overflow:visible;"/>
			</clipPath>
			<path class="st24" d="M2205.67,1333.41c0,0,47.52,8.07,72.68,66.93c25.16,58.86,19.79,146.45,13.16,260.13
				c-6.64,113.68,25.98,116.48,29.7,195.68c3.73,79.2-14.91,153.75-119.27,189.16c-104.36,35.41-191.95,51.34-326.13,29.86
				l-99.7-113.73l48.45-221.77c0,0,90.23-90.55,101.49-158.49c11.26-67.94,98.82-237.36,134.26-262.09
				S2205.67,1333.41,2205.67,1333.41z"/>
		</g>
		<g>
			<defs>
				<path id="SVGID_8_" d="M2029.1,1332.48l-6.06-0.47c0,0-62.43,1.86-82,26.09c-19.57,24.23-33.08,137.91-33.08,137.91
					l38.67,291.19c0,0,23.3,41,141.63,41c118.34,0,164.93-48.45,164.93-48.45l-10.96-136.35c0,0,19.81-30.91,23.07-63.98
					c3.26-33.08-29.35-209.66-64.76-235.28c-35.41-25.62-113.68-14.51-113.68-14.51L2029.1,1332.48z"/>
			</defs>
			<use xlink:href="#SVGID_8_"  style="overflow:visible;fill:#FFAB00;"/>
			<clipPath id="SVGID_9_">
				<use xlink:href="#SVGID_8_"  style="overflow:visible;"/>
			</clipPath>
			<path class="st25" d="M2165.61,1387.46c0,0-16.31,19.1-10.25,54.04c6.06,34.94,31.68,83.86,21.9,102.5
				c-9.78,18.64-28.58,49.7-24.54,57c4.04,7.3,12.27,11.34,12.27,11.34l53.42,33.85c0,0,14.12,3.89,23.83-2.79c9.71-6.68,0,0,0,0
				l6.61,1.86l-156.99,84.64l-18.03-26.09c0,0,57.07-61.73,62.2-82.7c5.13-20.97,1.4-22.5,13.05-43.4
				c11.65-20.9,23.3-34.41,15.84-57.47c-7.45-23.06-21.2-60.57-18.4-82.7S2150.93,1401.67,2165.61,1387.46z"/>
			<path class="st25" d="M1958.75,1390.14c0,0-9.81,41.16,0.57,91.45c10.38,50.29,37.15,179.98,37.15,179.98l6.39-3.27
				C2002.85,1658.3,1958.75,1436.93,1958.75,1390.14z"/>
		</g>
		<path class="st26" d="M1817.01,2338.92c0,0-3.73,29.97-3.65,54.12c0.08,24.15,16.47,43.31,8.1,65.94s-77.23,23.31-126.29,29.13
			c-49.06,5.82-92.45-4.71-86.16-41.54c6.28-36.84,85.91-22.34,117.13-68.15c31.22-45.8,21.84-53.27,21.84-53.27L1817.01,2338.92z"
			/>
		<path class="st26" d="M2079.79,2362.12c0,0-3.73,29.97-3.65,54.12c0.08,24.15,16.47,43.31,8.1,65.94
			c-8.37,22.63-77.23,23.31-126.29,29.13c-49.06,5.82-92.45-4.71-86.16-41.54c6.28-36.84,85.91-22.34,117.13-68.15
			c31.22-45.8,21.84-53.27,21.84-53.27L2079.79,2362.12z"/>
		<g>
			<defs>
				<path id="SVGID_10_" d="M1953.78,1781.92l-7.14,5.28c0,0-212.76,68.64-232.64,133.25c-19.88,64.61,11.8,435.15,11.8,435.15
					s57.77,45.66,109.02-4.66l4.19-346.17l215.05-79.67l62.16,1.86c0,0,74.54-53.11,79.2-56.84c4.66-3.73,63.36-45.66,63.36-45.66
					l-36.34-59.64L1953.78,1781.92z"/>
			</defs>
			<use xlink:href="#SVGID_10_"  style="overflow:visible;fill:#1E2889;"/>
			<clipPath id="SVGID_11_">
				<use xlink:href="#SVGID_10_"  style="overflow:visible;"/>
			</clipPath>
			<path class="st27" d="M1707.44,1881.94c0,0,86.38,19.47,102.22,126.37c15.84,106.89,34.48,185.77,34.48,185.77l44-157.21
				l153.54-82.4l95.35-75.01l48.18-110.73l-76.44-40.23l-232.02,19.57l-122.07,63.36L1707.44,1881.94z"/>
		</g>
		<g>
			<defs>
				<path id="SVGID_12_" d="M2105.04,1816.09c0,0-112.47,95.98-121.93,166.79c-9.46,70.82,0,382.97,0,382.97s72.54,48.45,121.93,0
					c0,0-20.5-285.13,23.29-333.59c43.8-48.45,121.14-92.25,130.45-164c9.32-71.75-5.59-88.52-5.59-88.52l-74.71-12.11
					L2105.04,1816.09z"/>
			</defs>
			<use xlink:href="#SVGID_12_"  style="overflow:visible;fill:#1E2889;"/>
			<clipPath id="SVGID_13_">
				<use xlink:href="#SVGID_12_"  style="overflow:visible;"/>
			</clipPath>
			<path class="st28" d="M1963.4,2126.38c2.8-8.39,41.93-167.55,204.07-130.6c162.13,36.95,0,0,0,0l50.94-24.39
				c0,0,66.69-55.29,71.55-62.12s0.74-63.36,1.56-70.82c0.82-7.45,0-90.07,0-90.07l-320.97-7.45l4.35,114.92l-11.49,175.18V2126.38z
				"/>
		</g>
		<path class="st22" d="M1222.62,2528.27V1783.2c0-2.93,2.38-5.31,5.31-5.31h14.53c2.93,0,5.31,2.38,5.31,5.31v745.07
			c0,2.93-2.38,5.31-5.31,5.31h-14.53C1225,2533.58,1222.62,2531.2,1222.62,2528.27z"/>
		<path class="st22" d="M2460.09,2528.27V1783.2c0-2.93,2.38-5.31,5.31-5.31h14.53c2.93,0,5.31,2.38,5.31,5.31v745.07
			c0,2.93-2.38,5.31-5.31,5.31h-14.53C2462.46,2533.58,2460.09,2531.2,2460.09,2528.27z"/>
		<path class="st22" d="M1531.9,2436.62l-45.91-663.47c-0.19-2.77,1.9-5.16,4.66-5.36l15.08-1.04c2.77-0.19,5.16,1.9,5.36,4.66
			l45.91,663.47c0.19,2.77-1.9,5.16-4.66,5.36l-15.08,1.04C1534.49,2441.47,1532.09,2439.39,1531.9,2436.62z"/>
		<path class="st22" d="M2729.4,2436.62l-45.91-663.47c-0.19-2.77,1.9-5.16,4.66-5.36l15.08-1.04c2.77-0.19,5.16,1.9,5.36,4.66
			l45.91,663.47c0.19,2.77-1.9,5.16-4.66,5.36l-15.08,1.04C2731.99,2441.47,2729.59,2439.39,2729.4,2436.62z"/>
		<path class="st23" d="M2743.64,1803.04H1183.17c-6,0-10.87-4.87-10.87-10.87v-28.58c0-6,4.87-10.87,10.87-10.87h1560.47
			c6,0,10.87,4.87,10.87,10.87v28.58C2754.51,1798.18,2749.64,1803.04,2743.64,1803.04z"/>
		<rect x="2312.57" y="1633.92" class="st26" width="326.6" height="39.6"/>
		<rect x="2321.22" y="1673.52" class="st9" width="326.6" height="39.6"/>
		<rect x="2305.38" y="1713.13" class="st29" width="326.6" height="39.6"/>
		<g>
			<g>
				<path class="st30" d="M1534.96,1263.04l17.8,24.23c8.1-17.29,25.17-25.03,35.93-28.31l-24.56-18.67c0,0-4.21-0.19-9.55,1.55
					c-6.61,2.17-14.96,7.33-19.08,19.51C1535.31,1261.9,1535.13,1262.46,1534.96,1263.04z"/>
				<path class="st31" d="M1291.65,1468.81c0,11.4,7.95,20.93,18.61,23.36c1.72,0.41,3.52,0.62,5.37,0.62
					c1.59,0,3.15-0.16,4.65-0.46c11.01-2.16,19.33-11.86,19.33-23.52c0-4.32-1.15-8.39-3.15-11.89c-1.66-2.9-3.9-5.42-6.57-7.39
					c-3.98-2.95-8.91-4.7-14.25-4.7C1302.38,1444.84,1291.65,1455.57,1291.65,1468.81z"/>
				<path class="st31" d="M1506.97,1237.82c0,4.7,1.35,9.08,3.71,12.79c1.76,2.81,4.1,5.21,6.84,7.08c3.83,2.58,8.45,4.1,13.43,4.1
					c1.55,0,3.08-0.15,4.55-0.43c4.12-12.18,12.47-17.33,19.08-19.51c0.23-1.3,0.35-2.66,0.35-4.03c0-13.25-10.74-23.98-23.98-23.98
					C1517.71,1213.84,1506.97,1224.57,1506.97,1237.82z"/>
				<path class="st30" d="M1329.87,1449.53c2.67,1.97,4.91,4.49,6.57,7.39l102.96-113.28l21.51-23.67l31.74-34.92l24.87-27.36
					c-2.74-1.87-5.08-4.27-6.84-7.08l-29.76,32.74l-21,23.1l-22.04,24.24L1329.87,1449.53z"/>
				<path class="st31" d="M1279.14,1732.82v-0.48c79.61-29.38,146.94-2.44,152.38-0.16
					C1415.4,1736.47,1355.98,1749.5,1279.14,1732.82z"/>
				<path class="st30" d="M1310.26,1492.17l35.79,205.13l4.77,27.31l0.5,2.87l9.68-1.78l-0.19-1.09l-4.88-27.98l-35.65-204.31
					c-1.5,0.3-3.05,0.47-4.65,0.47C1313.78,1492.8,1311.98,1492.59,1310.26,1492.17z"/>
				<g>
					<path class="st31" d="M1549.3,1299.48l24.29,54.53l4.2,9.44l36.73-31.12l33.13-30.7l19.86-18.41l-6.72-5.84l-0.03-0.02
						l-0.23-0.1l-0.21-0.09l-61.14-25.99c0,0-3.9,0.5-9.51,2.2c-10.76,3.27-27.82,11.01-35.93,28.3c-0.91,1.92-1.7,3.96-2.35,6.13
						C1550.31,1291.36,1549.57,1295.24,1549.3,1299.48z"/>
					<path class="st32" d="M1641.88,1343.57c24.27-22.82,34.93-50.91,23.81-62.74c-11.13-11.84-39.82-2.94-64.1,19.88
						c-24.27,22.82-34.93,50.91-23.81,62.75C1588.91,1375.28,1617.61,1366.38,1641.88,1343.57z"/>
				</g>
			</g>
			<rect x="1279.14" y="1732.82" class="st32" width="152.38" height="19.91"/>
		</g>
		<g>
			<path class="st22" d="M2839.39,2233.84c0,1.75-0.34,3.47-1.02,5.16c-7.65,19.53-58.19,34.61-119.38,34.61
				c-61.92,0-112.93-15.44-119.64-35.3l-0.76-4.46c0-21.96,53.91-39.77,120.4-39.77
				C2785.49,2194.07,2839.39,2211.88,2839.39,2233.84z"/>
			<path class="st23" d="M2838.39,2239l-41.52,244.48c-75.66,43.08-155.75,0-155.75,0l-41.76-245.18
				c6.7,19.86,57.72,35.3,119.64,35.3c61.2,0,111.73-15.08,119.38-34.61H2838.39z"/>
		</g>
		<g>
			<defs>
				<path id="SVGID_14_" d="M2021.25,1269.59c0,0,10.17,21.43,1.79,62.43c0,0,6.52,20.03,29.35,19.57
					c22.83-0.47,34.48-21.96,34.48-21.96s-10.87-17.48-6.37-54.6l0.31-13.82l-28.89-19.57L2021.25,1269.59z"/>
			</defs>
			<use xlink:href="#SVGID_14_"  style="overflow:visible;fill:#FFACA6;"/>
			<clipPath id="SVGID_15_">
				<use xlink:href="#SVGID_14_"  style="overflow:visible;"/>
			</clipPath>
			<path class="st33" d="M2019.93,1296.61c0,0,40.07-7.92,74.86,19.41c0,0,2.34-59.05,3.91-61.04c1.57-1.99-64.48-31.52-64.48-31.52
				s-23.3,13.89-23.92,24.96S2019.93,1296.61,2019.93,1296.61z"/>
		</g>
		<g>
			<defs>
				<path id="SVGID_16_" d="M1955.64,1156.99c0,0-59.3-2.1-26.06-121.68c0,0,30.41,22.91,84.46,26.02
					c54.04,3.11,114.3,1.86,121.76,98.15c3.11,62.12-55.29,115.54-55.29,115.54l-52.82-33.55L1955.64,1156.99z"/>
			</defs>
			<use xlink:href="#SVGID_16_"  style="overflow:visible;fill:#1E2889;"/>
			<clipPath id="SVGID_17_">
				<use xlink:href="#SVGID_16_"  style="overflow:visible;"/>
			</clipPath>
			<path class="st34" d="M1912.62,1115.79c0,0,0.93,6.94,27.02,0c26.09-6.94,59.17-17.84,102.5,10.21
				c43.33,28.05,59.41,86.28,93.77,79.29l-25.74,54.98l-56.1,36.34c0,0-89.41-25.87-92.87-35.6c-3.45-9.72-29.01-69.84-32.73-79.09
				c-3.73-9.25-9-32.08-9-32.08L1912.62,1115.79z"/>
		</g>
		<g>
			<defs>
				<path id="SVGID_18_" d="M1953.15,1141.77c0,0-16.15,135.42,33.55,143.19c49.7,7.77,82.62-49.08,82.62-49.08
					s24.85-3.11,22.36-29.51c-2.48-26.4-22.05-16.46-22.05-16.46s-22.05-9.63-21.74-32.92c0,0-26.71,6.21-38.83-18.33
					c0,0-20.19,13.98-40.69-7.45C1968.37,1131.21,1963.09,1143.95,1953.15,1141.77z"/>
			</defs>
			<use xlink:href="#SVGID_18_"  style="overflow:visible;fill:#FFACA6;"/>
			<clipPath id="SVGID_19_">
				<use xlink:href="#SVGID_18_"  style="overflow:visible;"/>
			</clipPath>
			<path class="st35" d="M1943.84,1159.39c0,0,31.22,2.57,61.27,9.1c30.05,6.52,45.89,50.32,77.81,44.96
				c31.91-5.36,18.17-22.71,18.17-22.71l-29.82-40.42l-69.65-22.6l-42.16-6.99l-17.24,13.98L1943.84,1159.39z"/>
		</g>
		<path class="st36" d="M2164.98,1612.34c0,0-51.02,53.72-89.81,67.39c-38.78,13.67-57.42-0.15-72.95,31.3l-3.11,6.6
			c0,0,55.91,18.01,96.29-1.86l123-69.57L2164.98,1612.34z"/>
		<g>
			<rect x="1707.44" y="1719.18" class="st37" width="460.03" height="33.54"/>
			<polygon class="st4" points="2045.28,1752.73 1644.6,1752.73 1586.64,1471.94 1987.32,1471.94 			"/>
			<polygon class="st37" points="2015.28,1752.73 1614.6,1752.73 1556.64,1471.94 1957.32,1471.94 			"/>
		</g>
		<rect x="2749.67" y="1605.04" class="st10" width="199.69" height="88.29"/>
		<rect x="2830.41" y="1693.32" class="st8" width="199.69" height="88.29"/>
		
			<ellipse transform="matrix(0.9901 -0.1403 0.1403 0.9901 -205.48 264.1346)" class="st5" cx="1769.99" cy="1588.93" rx="37.71" ry="41.48"/>
	</g>
</g>
</svg>
