<svg id="Mỗi_hình_1_layer_riêng" data-name="Mỗi hình 1 layer riêng" xmlns="http://www.w3.org/2000/svg" xmlns:xlink="http://www.w3.org/1999/xlink" viewBox="0 0 4680 3120"><defs><style>.cls-1{fill:#edf3ff;}.cls-2,.cls-23,.cls-42{fill:#fff;}.cls-3{fill:#2337e8;}.cls-4{fill:#4052f2;}.cls-5{fill:#ffb966;}.cls-6{fill:#ff2e56;}.cls-7{fill:#f47e67;}.cls-8{fill:#1174ea;}.cls-9{fill:#ff5f5f;}.cls-10{fill:#2d2daa;}.cls-11{fill:#ffa852;}.cls-12{fill:#d7e6ff;}.cls-13{fill:#ef882b;}.cls-14{fill:#f42241;}.cls-15{fill:#fafbfd;}.cls-16{fill:#dda6ac;}.cls-17{clip-path:url(#clip-path);}.cls-18{fill:#6f8fd8;}.cls-19{fill:#87a5ff;opacity:0.2;}.cls-20{fill:#3177db;}.cls-20,.cls-76{opacity:0.51;}.cls-21,.cls-49{fill:#060555;}.cls-22{fill:url(#linear-gradient);}.cls-23{opacity:0.95;}.cls-24{fill:#fcd6d6;}.cls-25{fill:#a9bdf7;}.cls-26{fill:#4476f2;}.cls-27{fill:#fd8f92;}.cls-28{fill:#788bf9;}.cls-29{fill:#3a03c0;}.cls-30{fill:#3652cc;}.cls-31{fill:#03097f;}.cls-32{fill:#7891ef;}.cls-33{clip-path:url(#clip-path-2);}.cls-34{fill:#d4d4ff;}.cls-35{fill:url(#linear-gradient-2);}.cls-36{fill:url(#linear-gradient-3);}.cls-37{fill:#072070;}.cls-38{fill:#1530a0;}.cls-39{fill:#307df9;}.cls-40{fill:url(#linear-gradient-4);}.cls-41{clip-path:url(#clip-path-3);}.cls-42{opacity:0.73;}.cls-43{clip-path:url(#clip-path-4);}.cls-44{fill:#dd7b19;}.cls-44,.cls-47{opacity:0.52;}.cls-45{fill:#0e0e77;}.cls-46{clip-path:url(#clip-path-5);}.cls-47{fill:#f79b37;}.cls-48{clip-path:url(#clip-path-6);}.cls-49{opacity:0.37;}.cls-50{fill:#d37b24;}.cls-51{clip-path:url(#clip-path-7);}.cls-52{fill:#ef993a;}.cls-53{clip-path:url(#clip-path-8);}.cls-54{fill:#f47aac;opacity:0.46;}.cls-55{clip-path:url(#clip-path-9);}.cls-56{fill:#d37d89;}.cls-57{clip-path:url(#clip-path-10);}.cls-58,.cls-61{fill:#001051;}.cls-58{opacity:0.42;}.cls-59{clip-path:url(#clip-path-11);}.cls-60{clip-path:url(#clip-path-12);}.cls-61{opacity:0.22;}.cls-62{clip-path:url(#clip-path-13);}.cls-63{clip-path:url(#clip-path-14);}.cls-64{fill:#d10737;}.cls-65{fill:#ba0934;}.cls-66{fill:#db1239;}.cls-67{fill:#f9898b;}.cls-68{fill:#ea425b;}.cls-69{clip-path:url(#clip-path-15);}.cls-70{fill:#ed4848;}.cls-71{clip-path:url(#clip-path-16);}.cls-72{fill:#f4882f;}.cls-73{clip-path:url(#clip-path-17);}.cls-74{fill:#0845b2;}.cls-74,.cls-75{opacity:0.56;}.cls-75,.cls-77{fill:#242ba4;}.cls-78{clip-path:url(#clip-path-18);}.cls-79,.cls-80{fill:#f41e37;}.cls-80{opacity:0.45;}.cls-81{fill:#ef0f30;}.cls-82{clip-path:url(#clip-path-19);}.cls-83{fill:#0b0b60;opacity:0.67;}.cls-84{clip-path:url(#clip-path-20);}.cls-85{clip-path:url(#clip-path-21);}.cls-86{fill:#f9bc7a;}.cls-87{clip-path:url(#clip-path-22);}</style><clipPath id="clip-path"><path class="cls-1" d="M1473.15,924c360.76-66.26,620.82-10.84,859.38-149.1s507-330.75,881.08-244,553,612.68,439.18,1027.47-532.26,1000.35-1341,1019.33-1153.08-452.74-1261.52-713S941.79,1021.63,1473.15,924Z"/></clipPath><linearGradient id="linear-gradient" x1="1772.86" y1="1134.7" x2="3274.17" y2="1134.7" gradientUnits="userSpaceOnUse"><stop offset="0" stop-color="#605fe1"/><stop offset="1" stop-color="#3449bc"/></linearGradient><clipPath id="clip-path-2"><path class="cls-2" d="M2415.33,1769h64.52s1,107.69-64.52,107.69S2350.81,1769,2350.81,1769Z"/></clipPath><linearGradient id="linear-gradient-2" x1="2350.81" y1="1768.95" x2="2479.85" y2="1768.95" xlink:href="#linear-gradient"/><linearGradient id="linear-gradient-3" x1="2706.03" y1="1817.11" x2="2894.63" y2="1817.11" xlink:href="#linear-gradient"/><linearGradient id="linear-gradient-4" x1="2694.25" y1="1584.04" x2="2969" y2="1584.04" xlink:href="#linear-gradient"/><clipPath id="clip-path-3"><polygon class="cls-12" points="2707.66 1526.17 2953.84 1414.31 2958.21 1625.93 2717.94 1748.2 2707.66 1526.17"/></clipPath><clipPath id="clip-path-4"><path class="cls-13" d="M2859.94,2105.21s-55.5,38.91-69.47,53-4.17,45,16.39,67.07,182.33,179.57,201.92,201.48,30.78,43.3,25.68,69.74-11.55,42.63-11.55,42.63,8.5,26,27.75,20.17,36.06-35.9,41.71-57.62,19.89-53.42,23.09-58.63-16.57-15.08-27.18-22-27.16-22.68-47.31-53.07-70.21-101.26-89.35-124.64-61.16-51.23-61.16-51.23l32.72-9.67Z"/></clipPath><clipPath id="clip-path-5"><path class="cls-5" d="M2823.61,2066.42s-68.27,22.68-86.78,32.86-18.28,45.59-4.4,75.21,128.2,246,141.16,275.14,17.59,55.07,4.17,81-25,40.73-25,40.73.47,29.86,21.76,30,47.67-25.81,60.16-46.63,36.79-49.29,41.65-53.69-12-21.06-20.59-31.7-20.36-32.4-31.24-70.58-39.34-128.2-51.37-158.74-45.82-73.13-45.82-73.13l36.1.47Z"/></clipPath><clipPath id="clip-path-6"><path class="cls-14" d="M3083.86,2005l-5.25,4s-69,4.62-137.76,18.82-121.87,37-121.87,37-10.64,83.23,51.83,128.35c0,0,219.37,30.55,314.48,18.75s131.21-86.09,123.57-134-18.13-73-18.13-73Z"/></clipPath><clipPath id="clip-path-7"><path class="cls-5" d="M3029,1481.38s-2.45,48.62,0,78.5,16,64.37,55.4,35.31c0,0,25.54-32,26.35-56.23S3071.13,1482.74,3029,1481.38Z"/></clipPath><clipPath id="clip-path-8"><path class="cls-15" d="M3122.89,1646.7l-40,2.69s-31.17,5.32-51.74,10.82-10.18,39.54-14.26,59.1-17.18,44.81-18.53,68.17,12.22,52.83,46.44,87.46c8.56,10.18,12.63,83.11,2.85,136.88,0,0,74.58,58.14,193.55,8,0,0-13.92-82.31-13.2-119.52,1.49-77.09,5.84-128.26-1.09-175.93s-17.11-66.41-17.11-66.41l-76-13.64Z"/></clipPath><clipPath id="clip-path-9"><rect class="cls-16" x="3179.67" y="2358.4" width="32.82" height="206.18" transform="translate(6392.17 4922.99) rotate(-180)"/></clipPath><clipPath id="clip-path-10"><rect class="cls-3" x="3156.96" y="2263.99" width="78.25" height="132.59" rx="27.54"/></clipPath><clipPath id="clip-path-11"><path class="cls-3" d="M3065.57,2599.48c0,14.4,58.43,26.08,130.51,26.08s130.51-11.68,130.51-26.08-58.43-44.72-130.51-44.72S3065.57,2585.07,3065.57,2599.48Z"/></clipPath><clipPath id="clip-path-12"><path class="cls-4" d="M3359.47,1694.74c-61.77,2.44-119.4,7.26-143.7,75.13s10.41,228.24-47.21,283.08-196.24,60.35-210.93,104.46,11,98.25,117.22,110.05,236.72,25,311.7-17.35,107.6-142.32,120.09-235.34,16.67-168,17.36-205.49S3482.35,1689.88,3359.47,1694.74Z"/></clipPath><clipPath id="clip-path-13"><path class="cls-5" d="M3038.62,1689.09c7.4,30.76,6,80.67-5.7,102.12s-56.63,124.4-71.7,139.07-38.82,5.5-61.93-6.76c-19.71-10.44-164.83-90.65-176.24-102.06,0,0-42.37-31.37-52.55-59.07s10-46,29.87-36.53S2743,1756,2753,1781.94s29.21,27.6,61.47,40.5c30.67,12.27,115.25,45.37,117.42,44.82s10.32-17.33,17.93-42.91,44.09-119.78,52.06-135.26,22.76-28.38,26.7-24.31S3036.62,1680.75,3038.62,1689.09Z"/></clipPath><clipPath id="clip-path-14"><path class="cls-6" d="M3024.64,1464.07s-12,31.78,38.83,50.37,38.6,182.51,111.08,207.81,95,72.72,76.64,187.1S3409,2083,3496.51,1930.53s-46.06-274.61-135.56-314.24c-88.45-39.17-115.78-150.55-135.56-190.58-29.66-60-134.15-72.8-164.27-22.44,0,0-24.42-11.81-43.94,14.44C2999.69,1441.24,3024.64,1464.07,3024.64,1464.07Z"/></clipPath><clipPath id="clip-path-15"><path class="cls-7" d="M2376.55,1769s-31-10.22-26.82-28.87,33.86-11,28.46-32.13,12-28.71,26.62-26.38,22.44-16.06,43.29-12.14,14.23,24,9.57,35.08,25.51,14,23.55,32.63-16.19,31.32-35.32,34.91C2445.9,1772.12,2411,1779.73,2376.55,1769Z"/></clipPath><clipPath id="clip-path-16"><path class="cls-5" d="M1619.06,1369.65s22.69,79.84,29.07,80.33,115.78-86.35,128-101.56,13.85-34.53,18.75-48.75,33.37-23.55,54-21.1,29.93,4.41,18.16,47.1-9,31.58-44.27,49.24-76.43,77.83-132.85,124.93c-50.56,42.21-67.21,28-92.73,1s-54.57-106.77-54.57-106.77S1578.83,1373.57,1619.06,1369.65Z"/></clipPath><clipPath id="clip-path-17"><path class="cls-8" d="M1645.54,1657.09s25.76,125.84,39.74,217.83,39.74,341.48,42,448.19c0,0-46.61,31.56-137.87,6.71,0,0-2.7-251.78-48.32-446.06,0,0-53.89,249.48-148.06,422.89,0,0-82.72-45.14-129.69-118.13,0,0,54.76-72.21,85.67-165.67s31.64-327.25,31.64-327.25Z"/></clipPath><clipPath id="clip-path-18"><path class="cls-9" d="M1599.91,1421.59s21.59-.74,34.59-15.21c0,0-12.76-54.71-18.65-96.9s-14.71-115.3-57.4-127.08-93.21-13.73-93.21-13.73l-44.89,1.71c-.38,0-5.65.42-5.65.42s-72.28,22.07-105,46-36.31,125.11-31.4,229.61a27.52,27.52,0,0,0,4.91,5.3c8.67,7.49,29.71,18.95,70.17,6.28,1.44-.44,2.91-.93,4.4-1.44,0,0,.81,57.7,5,123.49,2.76,43.06,7,89.57,13.38,125.67,0,0,24.66,7.43,61.26,11.36,59.06,6.37,149.21,3.67,216.92-54Z"/></clipPath><clipPath id="clip-path-19"><path class="cls-10" d="M1512.82,1006.27s20.94-3.92,28.13-41.86-11-67.22-11-67.22-37.62,21.59-77.52,20.61-99.27,4.25-120.37,47.1,3.6,118.24,40.4,144.89c35.09,25.43,40.55,20.94,54.62,6.55Z"/></clipPath><clipPath id="clip-path-20"><path class="cls-11" d="M1518.06,992.86s3.84,71.31,3.84,93.38-14,65.26-51.76,56.18-50.29-27-49.31-34.59-1.39-19.95-13.49-26.33-19.46-14.06-18.15-29.76,12.43-8.18,21.75-17.83,11.12-22.73,11.12-22.73S1501.7,1014,1518.06,992.86Z"/></clipPath><clipPath id="clip-path-21"><path class="cls-5" d="M1437.8,1717.63c-13.25,28-49.07,29.68-49.07,29.68s-91.26-158.23-100.08-174.42c-8.26-15.13-5.78-109.05-5.43-121.23,8.66,7.49,29.7,18.95,70.16,6.28.16,18.76.71,76.9,2.08,99.25.29,4.72,3,12.76,7.35,22.8,19.24,44.7,69.84,129.08,74.64,137Z"/></clipPath><clipPath id="clip-path-22"><path class="cls-4" d="M1679.56,2423.07c-19.27,4.2-34.42-1.41-45-.58s-10,17.23-8.6,46.82-4.56,67.06,25.75,66.53,174-8.22,205.15-21.45,19.33-46.89-13.07-51.74-120.74-42.76-125.78-51S1702.36,2418.11,1679.56,2423.07Z"/></clipPath></defs><title>09</title><rect class="cls-2" width="4680" height="3120"/><path class="cls-1" d="M1473.15,924c360.76-66.26,620.82-10.84,859.38-149.1s507-330.75,881.08-244,553,612.68,439.18,1027.47-532.26,1000.35-1341,1019.33-1153.08-452.74-1261.52-713S941.79,1021.63,1473.15,924Z"/><g class="cls-17"><rect class="cls-18" x="853.07" y="2230.28" width="3150.18" height="23.72"/><path class="cls-19" d="M842.75,1434s102.2-135.54,591.5-152.72,336.91,185.25,973.37,188.87,1225.66-503.16,1410-450.39-391,1224.74-391,1224.74H1110.24Z"/><path class="cls-19" d="M834.05,1726.49s635.92-87.43,1190.9,42.7,960.48-164.5,1256.56-126.53,466-186.14,466-186.14S3337.21,2268.76,3330,2264.77s-2233.86-24.86-2233.86-24.86Z"/><path class="cls-20" d="M2303.82,2577.79S2082.23,2468,2063.29,2437.21s73.42-37.44,151.19-57.4,636.26-149.64,683.11-160.92,402.93,3.72,402.93,3.72-190.17,207.11-195.76,208.77-686.44,213-686.44,213Z"/></g><path class="cls-21" d="M1859.7,691.11a6.19,6.19,0,0,1-2.91-11.65l666.59-218.73a6.18,6.18,0,0,1,5.86,0L3178.5,679.48a6.19,6.19,0,1,1-5.89,10.89L2526.26,473.22,1862.61,690.39A6.23,6.23,0,0,1,1859.7,691.11Z"/><rect class="cls-22" x="1772.86" y="663.33" width="1501.31" height="942.74" rx="68.54"/><rect class="cls-23" x="1808.1" y="696.69" width="1430.82" height="876.03" rx="64.5"/><rect class="cls-24" x="2687.94" y="1213.25" width="466.1" height="238.41" rx="52.35"/><path class="cls-25" d="M2571.43,1465.89H1943.1a47.88,47.88,0,0,1-47.83-47.83v-200.2A47.87,47.87,0,0,1,1943.1,1170h628.33a47.87,47.87,0,0,1,47.83,47.82v200.2A47.88,47.88,0,0,1,2571.43,1465.89ZM1943.1,1177.52a40.39,40.39,0,0,0-40.35,40.34v200.2a40.39,40.39,0,0,0,40.35,40.34h628.33a40.39,40.39,0,0,0,40.35-40.34v-200.2a40.39,40.39,0,0,0-40.35-40.34Z"/><rect class="cls-26" x="1940.99" y="1366.81" width="26.9" height="65.38"/><rect class="cls-26" x="2027.51" y="1390.56" width="26.9" height="41.63"/><rect class="cls-26" x="2114.03" y="1363.9" width="26.9" height="68.28"/><rect class="cls-26" x="2200.55" y="1326.93" width="26.9" height="105.25"/><rect class="cls-26" x="2287.08" y="1289.25" width="26.9" height="142.93"/><rect class="cls-26" x="2373.6" y="1312.03" width="26.9" height="120.15"/><rect class="cls-26" x="2460.12" y="1282.95" width="26.9" height="149.23"/><rect class="cls-26" x="2546.64" y="1243.2" width="26.9" height="188.98"/><rect class="cls-25" x="2229.58" y="829.46" width="451.08" height="33.32" rx="16.65"/><rect class="cls-25" x="2229.58" y="898.28" width="451.08" height="33.32" rx="16.65"/><rect class="cls-25" x="2229.58" y="967.1" width="451.08" height="33.32" rx="16.65"/><rect class="cls-25" x="2229.58" y="1035.91" width="451.08" height="33.32" rx="16.65"/><rect class="cls-27" x="1869.67" y="829.46" width="308.81" height="85.48" rx="25"/><rect class="cls-28" x="1869.67" y="983.75" width="308.81" height="85.48" rx="25"/><path class="cls-27" d="M3092.65,930.5l90-23.73c-22.91-93.59-107.34-163-208-163v93A121.17,121.17,0,0,1,3092.65,930.5Z"/><path class="cls-4" d="M2853.52,957.85a121.11,121.11,0,0,1,121.11-121.12v-93c-118.25,0-214.11,95.87-214.11,214.12a213.25,213.25,0,0,0,49.79,137.27l69.7-61.68A120.6,120.6,0,0,1,2853.52,957.85Z"/><path class="cls-24" d="M3182.62,906.77l-90,23.73a121.7,121.7,0,0,1,3.1,27.45c-.06,66.94-55.21,121.57-122.14,121a120.9,120.9,0,0,1-93.6-45.52l-69.7,61.68A213.63,213.63,0,0,0,2974.63,1172c118.27,0,214-95.72,214.12-214A215,215,0,0,0,3182.62,906.77Z"/><rect class="cls-29" x="2089.17" y="1861.09" width="33.11" height="581.62" rx="16.55"/><rect class="cls-29" x="2456.74" y="2078.38" width="33.11" height="581.62" rx="16.55"/><path class="cls-30" d="M2062.47,1847.14l-28.77-9.52v58.57s330.73,247.33,475.61,296.17l-3.73-53.4v-12.42Z"/><path class="cls-31" d="M2511.38,2127.92l-5.8,11,3.73,53.4s539.5-53.4,960.19-525v-60l-66,4.42Z"/><path class="cls-32" d="M2033.71,1837.62s695.68-13.36,980.47-366l455.32,135.77S3136.42,2006.5,2505.59,2139C2505.59,2139,2297,2024.72,2033.71,1837.62Z"/><path class="cls-2" d="M2415.33,1769h64.52s1,107.69-64.52,107.69S2350.81,1769,2350.81,1769Z"/><g class="cls-33"><path class="cls-34" d="M2359,1849.66c-1,0,38.27,17,67.71-5.58s21.58-65.4,21.58-65.4l31.57-19.3,19.46,48.08-31.07,74-70.65,24.15-30.75-21.92Z"/></g><ellipse class="cls-35" cx="2415.33" cy="1768.95" rx="64.52" ry="16.93"/><polygon class="cls-2" points="2539.88 1870.59 2698.92 1807.46 2904.98 1908.11 2744.06 1981.14 2539.88 1870.59"/><polygon class="cls-36" points="2715.51 1770.99 2706.03 1770.99 2707.01 1790.29 2894.63 1863.23 2893.45 1844.08 2891.48 1836 2715.51 1770.99"/><polygon class="cls-37" points="2897.7 1836.57 2893.45 1844.08 2894.59 1863.23 3181.93 1702.31 3181.93 1683.66 3168.2 1683.66 2897.7 1836.57"/><path class="cls-38" d="M2956.25,1621.84c.49,1.48,12.75,12.76,12.75,12.76l212.93,49.06-288.49,160.42L2706,1771l9.81-17.66Z"/><polygon class="cls-39" points="2710.2 1758.97 2706.03 1770.99 2692.43 1765.1 2680.66 1510.64 2694.25 1516.53 2706.03 1539.74 2710.2 1758.97"/><polygon class="cls-39" points="2959.43 1405.48 2964.09 1397.09 2950.5 1391.19 2680.66 1510.64 2694.25 1516.53 2727.12 1518.92 2959.43 1405.48"/><polygon class="cls-40" points="2694.25 1516.53 2964.09 1397.09 2969 1634.6 2706.03 1770.99 2694.25 1516.53"/><polygon class="cls-12" points="2707.66 1526.17 2953.84 1414.31 2958.21 1625.93 2717.94 1748.2 2707.66 1526.17"/><g class="cls-41"><polygon class="cls-42" points="2786.92 1452.5 2719.11 1773.45 2780.19 1743.93 2842.06 1445.17 2786.92 1452.5"/><polygon class="cls-42" points="2881.12 1415.9 2813.31 1736.85 2874.39 1707.33 2936.26 1408.57 2881.12 1415.9"/></g><polygon class="cls-37" points="2732.52 1768.54 2969 1642.95 3063.2 1665.82 2818.87 1802.72 2732.52 1768.54"/><path class="cls-13" d="M2859.94,2105.21s-55.5,38.91-69.47,53-4.17,45,16.39,67.07,182.33,179.57,201.92,201.48,30.78,43.3,25.68,69.74-11.55,42.63-11.55,42.63,8.5,26,27.75,20.17,36.06-35.9,41.71-57.62,19.89-53.42,23.09-58.63-16.57-15.08-27.18-22-27.16-22.68-47.31-53.07-70.21-101.26-89.35-124.64-61.16-51.23-61.16-51.23l32.72-9.67Z"/><g class="cls-43"><path class="cls-44" d="M2872.29,2138.19c1,1.4,15.11,35.48,3.93,51s35.41,24.61,58.94,52.9,69.25,88.14,88.57,120,56.78,70.78,81.35,66,2.41,2,2.41,2l-10.79-36.83-174.38-190.9,17-25.34Z"/></g><path class="cls-45" d="M3085.38,2458c-3.89,10.93-9.44,39.08-15.94,50s-41.58,44.14-40,12.65c0,0-3.69-.06-8.07,15.16s-13.88,38.12-13.61,48.53,12.45,17.79,31.27,6,49.72-35.45,58.7-52.22,7.71-44.24,13-49.91,32.07,12.51,32.07,12.51,7.49-3.87,11.23-11.25c0,0-14.15-31.91-28.29-49.56s-31.4-18.69-33.46-15.71S3089.4,2446.76,3085.38,2458Z"/><path class="cls-5" d="M2823.61,2066.42s-68.27,22.68-86.78,32.86-18.28,45.59-4.4,75.21,128.2,246,141.16,275.14,17.59,55.07,4.17,81-25,40.73-25,40.73.47,29.86,21.76,30,47.67-25.81,60.16-46.63,36.79-49.29,41.65-53.69-12-21.06-20.59-31.7-20.36-32.4-31.24-70.58-39.34-128.2-51.37-158.74-45.82-73.13-45.82-73.13l36.1.47Z"/><g class="cls-46"><path class="cls-47" d="M2825.79,2104.78c.6,1.8,4.18,41.86-12,54.42s28.1,37.08,43.05,74.15,42.46,114.22,52,153.69,35.28,92.09,61.59,95.08,1.8,2.9,1.8,2.9l.6-41.87L2856.29,2187.9,2881.4,2167Z"/></g><path class="cls-14" d="M3083.86,2005l-5.25,4s-69,4.62-137.76,18.82-121.87,37-121.87,37-10.64,83.23,51.83,128.35c0,0,219.37,30.55,314.48,18.75s131.21-86.09,123.57-134-18.13-73-18.13-73Z"/><g class="cls-48"><path class="cls-49" d="M3119.71,1997.47s27.2,81.58-61.3,112.39-235.6,23-235.6,23l14.34,71.76,78.94,26.91L3038.68,2219,3216,2167l26.43-100.55,5.52-51.94Z"/></g><path class="cls-45" d="M2941.26,2506.91c-7.35,10.13-21.75,37.69-31.75,47s-55.81,32.63-44.39.31c0,0-3.7-1.25-12.89,13.2s-25.94,35.27-28.91,46.21,7,22.56,29.72,16.35,61.34-20.94,75.66-35.53,21.61-43.64,28.77-47.83S2986,2570,2986,2570s8.78-1.62,14.86-8.1c0,0-4.32-37.83-13.1-60.8s-25.9-29.61-28.92-27.16S2948.83,2496.47,2941.26,2506.91Z"/><path class="cls-50" d="M3080.84,1590.77s10,37.79,2,58.62c0,0,35.24,16.55,50.93-5,0,0-10-41.36-7.54-55.82l-27.73-26.87Z"/><path class="cls-5" d="M3029,1481.38s-2.45,48.62,0,78.5,16,64.37,55.4,35.31c0,0,25.54-32,26.35-56.23S3071.13,1482.74,3029,1481.38Z"/><g class="cls-51"><path class="cls-52" d="M3080.84,1613.93s-28.48-31.67-15.16-50.06,7-25-2.16-27.89-35.44-13.86-41.76-29.13l3.46-20.31,73.07,31.24,6.51,40.47-3.8,16.57Z"/></g><path class="cls-15" d="M3122.89,1646.7l-40,2.69s-31.17,5.32-51.74,10.82-10.18,39.54-14.26,59.1-17.18,44.81-18.53,68.17,12.22,52.83,46.44,87.46c8.56,10.18,12.63,83.11,2.85,136.88,0,0,74.58,58.14,193.55,8,0,0-13.92-82.31-13.2-119.52,1.49-77.09,5.84-128.26-1.09-175.93s-17.11-66.41-17.11-66.41l-76-13.64Z"/><g class="cls-53"><path class="cls-54" d="M3132.17,1644.35s21.18,22,26.48,69.25,11.41,63.76,17.52,83.32-9.78,31.56-9.78,100.11-43.39,131.5-85.55,133.33l77.81,32,67.63-6.31,49.76-192.5-5.15-143.81-101.44-100.63Z"/></g><rect class="cls-16" x="3179.67" y="2358.4" width="32.82" height="206.18" transform="translate(6392.17 4922.99) rotate(-180)"/><g class="cls-55"><rect class="cls-56" x="3153.14" y="2376.82" width="65.91" height="48.37" transform="translate(6372.2 4802.01) rotate(-180)"/></g><rect class="cls-3" x="3156.96" y="2263.99" width="78.25" height="132.59" rx="27.54"/><g class="cls-57"><rect class="cls-58" x="3105.83" y="2257.22" width="167.71" height="50.76" transform="translate(6379.38 4565.21) rotate(-180)"/></g><path class="cls-3" d="M3065.57,2599.48c0,14.4,58.43,26.08,130.51,26.08s130.51-11.68,130.51-26.08-58.43-44.72-130.51-44.72S3065.57,2585.07,3065.57,2599.48Z"/><g class="cls-59"><path class="cls-58" d="M3320.18,2578.28s-16.74,31.89-110.43,27.51-129.56-14.35-126-29.9c0,0-36.68,18.74-38.68,19.53s6.38,30.14,6.38,30.14l119.2,25.28,149.11-18.74s23.12-7.18,23.52-9.17S3320.18,2578.28,3320.18,2578.28Z"/></g><path class="cls-4" d="M3359.47,1694.74c-61.77,2.44-119.4,7.26-143.7,75.13s10.41,228.24-47.21,283.08-196.24,60.35-210.93,104.46,11,98.25,117.22,110.05,236.72,25,311.7-17.35,107.6-142.32,120.09-235.34,16.67-168,17.36-205.49S3482.35,1689.88,3359.47,1694.74Z"/><g class="cls-60"><path class="cls-61" d="M3493.58,2106.78s-71.76,126.78-229.64,122-224.84-77.12-147.1-141.42-54.42-11.07-54.42-11.07L2877.64,2154l.59,128,99.87,64.58s278.07,35.28,282.26,31.1S3368,2310.16,3368,2310.16L3482.81,2221Z"/><path class="cls-61" d="M3190.76,1757.42s32.39,54.12,28.46,151.93,31.4,173.84,176.63,142,154.54-147.18,153.56-153.07-9-175.4-9-175.4l-46-31.65-192.32,3.35Z"/></g><path class="cls-5" d="M3038.62,1689.09c7.4,30.76,6,80.67-5.7,102.12s-56.63,124.4-71.7,139.07-38.82,5.5-61.93-6.76c-19.71-10.44-164.83-90.65-176.24-102.06,0,0-42.37-31.37-52.55-59.07s10-46,29.87-36.53S2743,1756,2753,1781.94s29.21,27.6,61.47,40.5c30.67,12.27,115.25,45.37,117.42,44.82s10.32-17.33,17.93-42.91,44.09-119.78,52.06-135.26,22.76-28.38,26.7-24.31S3036.62,1680.75,3038.62,1689.09Z"/><g class="cls-62"><path class="cls-52" d="M3048.65,1730.31s-73.52,182.14-99.2,190c-14.46,4.46-15.34,1.68-46-8.79-20.61-7-72.68-25.92-72.68-25.92L2883,1926l28.11,17.54,23.83,6.73,35.45-11.57,88-182.77Z"/></g><path class="cls-6" d="M3024.64,1464.07s-12,31.78,38.83,50.37,38.6,182.51,111.08,207.81,95,72.72,76.64,187.1S3409,2083,3496.51,1930.53s-46.06-274.61-135.56-314.24c-88.45-39.17-115.78-150.55-135.56-190.58-29.66-60-134.15-72.8-164.27-22.44,0,0-24.42-11.81-43.94,14.44C2999.69,1441.24,3024.64,1464.07,3024.64,1464.07Z"/><g class="cls-63"><path class="cls-64" d="M3222.16,1401.55c3,3.6,30.42,90.93,44.16,135.42s40.89,70,123,122.65,93.22,194,29.77,217.51-139,23-175.07-34.85l-7.92,144.55,50.6,79.59,135.41,4.26,114.07-108.18S3598,1872,3598,1869.77,3511.14,1649,3511.14,1649l-262.73-217.1Z"/></g><polygon class="cls-65" points="2641.5 1997.89 2646.67 1998.67 2646.67 2004.27 2491.2 2056.35 2487.52 2050.1 2489.73 2042.29 2641.5 1997.89"/><polygon class="cls-66" points="2486.62 2040.21 2491.2 2050.1 2646.67 1998.67 2476.48 1920.83 2321.94 1958.28 2486.62 2040.21"/><path class="cls-2" d="M2626.26,1968.76s-8.51,16,3.27,28.94L2485,2045.15l-.73-31.42Z"/><polygon class="cls-66" points="2642.44 1968.76 2646.67 1969.32 2646.67 1975.89 2475.5 2028.98 2475.5 2022.42 2642.44 1968.76"/><polygon class="cls-66" points="2326.68 1938.52 2320.47 1930.84 2475.83 1895.02 2646.67 1969.32 2491.2 2018.57 2475.5 2022.42 2326.68 1938.52"/><polygon class="cls-67" points="2320.47 1930.84 2491.2 2018.57 2491.2 2056.35 2321.94 1964.52 2320.47 1930.84"/><polygon class="cls-65" points="2646.92 1956.53 2652.1 1957.31 2652.1 1962.9 2496.63 2014.99 2492.95 2008.74 2495.16 2000.93 2646.92 1956.53"/><polygon class="cls-66" points="2492.05 1998.85 2496.63 2008.74 2652.1 1957.31 2481.91 1879.47 2327.36 1916.92 2492.05 1998.85"/><path class="cls-2" d="M2631.68,1927.4s-8.5,16,3.28,28.94l-144.51,47.45-.72-31.42Z"/><polygon class="cls-66" points="2647.86 1927.4 2652.1 1927.96 2652.1 1934.53 2480.93 1987.63 2480.93 1981.06 2647.86 1927.4"/><polygon class="cls-68" points="2332.11 1897.16 2325.89 1889.47 2481.26 1853.66 2652.1 1927.96 2496.63 1977.21 2480.93 1981.06 2332.11 1897.16"/><polygon class="cls-67" points="2325.89 1889.47 2496.63 1977.21 2496.63 2014.99 2327.36 1923.16 2325.89 1889.47"/><path class="cls-7" d="M2376.55,1769s-31-10.22-26.82-28.87,33.86-11,28.46-32.13,12-28.71,26.62-26.38,22.44-16.06,43.29-12.14,14.23,24,9.57,35.08,25.51,14,23.55,32.63-16.19,31.32-35.32,34.91C2445.9,1772.12,2411,1779.73,2376.55,1769Z"/><g class="cls-69"><path class="cls-70" d="M2362.26,1764c.49,0,28.13,5.4,61.82-4.58s12.59-28.13,12.27-39.41,19.62-31.89,8.34-42.52-26.5-4.91-26.5-4.91l42-14.23,25.52,30.42-2.62,18.81,25.35,50.21s-38.11,29.76-38.6,29.76-60.84,7-61,6.54S2362.26,1764,2362.26,1764Z"/></g><path class="cls-5" d="M1619.06,1369.65s22.69,79.84,29.07,80.33,115.78-86.35,128-101.56,13.85-34.53,18.75-48.75,33.37-23.55,54-21.1,29.93,4.41,18.16,47.1-9,31.58-44.27,49.24-76.43,77.83-132.85,124.93c-50.56,42.21-67.21,28-92.73,1s-54.57-106.77-54.57-106.77S1578.83,1373.57,1619.06,1369.65Z"/><g class="cls-71"><path class="cls-72" d="M1610.62,1408.58s1.47,90.28,28,90.77,164.28-101.56,164.28-101.56l-150,146.21-64.28-15.53-31.4-74.85,22.08-51.41Z"/></g><path class="cls-8" d="M1645.54,1657.09s25.76,125.84,39.74,217.83,39.74,341.48,42,448.19c0,0-46.61,31.56-137.87,6.71,0,0-2.7-251.78-48.32-446.06,0,0-53.89,249.48-148.06,422.89,0,0-82.72-45.14-129.69-118.13,0,0,54.76-72.21,85.67-165.67s31.64-327.25,31.64-327.25Z"/><g class="cls-73"><path class="cls-74" d="M1295.23,2276.75c2.21-1.48,45.63-46.37,75.8-76.54s56.67-36.8,78.75-153.81,46.85-168.29,71.39-212.44,5.39-134.93,5.39-134.93l132.58-63.14,149,467.91-10.22,294.38-182.51,66.23L1349,2369.19Z"/><path class="cls-75" d="M1615.86,1662.24s42,149.15,48.5,245.31-2.38,195.26,9.39,240.9,6,155.26-43.17,206.55l142.28-5.89-17.67-388.57-77.51-328.72-61.82,30.42"/><g class="cls-76"><path class="cls-77" d="M1227.64,2265.85a3.33,3.33,0,0,1-1.8-6.13h0c.24-.16,24-15.57,52.24-49.56,26-31.35,61.28-85.37,81.37-164.7,38.69-152.82,35.31-365.7,35.27-367.83a3.34,3.34,0,0,1,3.27-3.39h.06a3.32,3.32,0,0,1,3.32,3.27c0,2.14,3.44,215.89-35.47,369.58-20.43,80.69-56.36,135.67-82.91,167.57-28.85,34.68-52.57,50-53.57,50.66A3.24,3.24,0,0,1,1227.64,2265.85Z"/></g><g class="cls-76"><path class="cls-77" d="M1287,2294a3.32,3.32,0,0,1-2.71-5.26c4.44-6.23,9.74-13.15,15.87-21.17,32.87-43,82.56-108,109.88-205.43,25.85-92.16,35.13-188.34,38.36-252.79,3.51-69.9.86-118.59.84-119.08a3.33,3.33,0,1,1,6.64-.37c0,.49,2.7,49.46-.82,119.69-3.25,64.81-12.59,161.56-38.61,254.35-27.67,98.67-79.84,166.91-111,207.68-6.09,8-11.35,14.85-15.73,21A3.33,3.33,0,0,1,1287,2294Z"/></g><g class="cls-76"><path class="cls-77" d="M1346.44,2322.2a3.33,3.33,0,0,1-2.71-5.26c102.69-143.93,140.76-303.14,154.61-411.35,15-117.36,5.6-201.73,5.51-202.57a3.33,3.33,0,1,1,6.61-.76c.09.84,9.6,85.86-5.49,204-8.87,69.36-24.36,136.44-46,199.37-27.12,78.7-64,151.1-109.78,215.2A3.32,3.32,0,0,1,1346.44,2322.2Z"/></g><g class="cls-76"><path class="cls-77" d="M1593.29,2473.63a3.51,3.51,0,0,1-.55-.05,3.33,3.33,0,0,1-2.74-3.83c28.83-173.7,12.1-373.37-7-510.29-20.71-148.41-48.59-257-48.87-258.12a3.33,3.33,0,1,1,6.45-1.67c.28,1.09,28.25,110.09,49,258.87,12.2,87.4,19.56,171.23,21.88,249.18,2.91,97.5-2.11,186-14.9,263.12A3.33,3.33,0,0,1,1593.29,2473.63Z"/></g><g class="cls-76"><path class="cls-77" d="M1644.81,2459.84a3.36,3.36,0,0,1-3.26-4c25.75-120.7,7.28-325.27-12.75-475.64-21.73-163.11-49.93-299.34-50.22-300.7a3.33,3.33,0,0,1,6.52-1.35c.28,1.36,28.53,137.79,50.29,301.13,12.78,96,20.86,182.3,24,256.64,3.95,93.07.13,167.53-11.34,221.31A3.35,3.35,0,0,1,1644.81,2459.84Z"/></g><g class="cls-76"><path class="cls-77" d="M1696.32,2446a3.26,3.26,0,0,1-1.06-.17,3.33,3.33,0,0,1-2.1-4.21c17.9-53.54,11.47-206-18.58-440.87-22.75-177.76-51.25-341.5-51.53-343.13a3.33,3.33,0,1,1,6.55-1.15c.29,1.64,28.82,165.52,51.58,343.44,13.38,104.52,22.17,193.38,26.15,264.1,5,88.72,2.35,149.19-7.85,179.72A3.34,3.34,0,0,1,1696.32,2446Z"/></g></g><path class="cls-9" d="M1599.91,1421.59s21.59-.74,34.59-15.21c0,0-12.76-54.71-18.65-96.9s-14.71-115.3-57.4-127.08-93.21-13.73-93.21-13.73l-44.89,1.71c-.38,0-5.65.42-5.65.42s-72.28,22.07-105,46-36.31,125.11-31.4,229.61a27.52,27.52,0,0,0,4.91,5.3c8.67,7.49,29.71,18.95,70.17,6.28,1.44-.44,2.91-.93,4.4-1.44,0,0,.81,57.7,5,123.49,2.76,43.06,7,89.57,13.38,125.67,0,0,24.66,7.43,61.26,11.36,59.06,6.37,149.21,3.67,216.92-54Z"/><g class="cls-78"><path class="cls-79" d="M1319.19,1468.28s25.19-13.09,29-53.64,1.72-159.13,12.06-147.36,15.74,213.92,18.19,262,78.5,196.74,78.5,196.74l-85.86-6.6s-17.66-76.81-16.68-81.71,0-111.2,0-111.2l-.9-60.5Z"/><path class="cls-80" d="M1451.25,1167s60.35-16.19,75.8,40.48S1525.58,1415,1552.81,1468s20.61,253.16-102.29,271.56c0,0,230.34,5.89,232.55-2.21s68.44-46.36,52.25-111.86-57.4-328.23-57.4-328.23l-47.1-118.87-88.18-21-53.86-22.68Z"/><path class="cls-81" d="M1644.07,1455l-8.1-18.7s-16.19-.41-26.66-39.34-25.18-129.19-33.68-138.35,2.94,137.21,14,171.06,60.56,250.47,60.56,250.47,24.81-6.87,24.81-12S1644.07,1455,1644.07,1455"/></g><path class="cls-10" d="M1512.82,1006.27s20.94-3.92,28.13-41.86-11-67.22-11-67.22-37.62,21.59-77.52,20.61-99.27,4.25-120.37,47.1,3.6,118.24,40.4,144.89c35.09,25.43,40.55,20.94,54.62,6.55Z"/><g class="cls-82"><path class="cls-83" d="M1344.05,1092.74s15,3.07,26.37-6.37-4.91-43.91,15-54.83,17.53-47.84,17.53-47.84,50.42,3.19,95.55-4,44.17-56.18,44.17-56.18l16.55,63.66-51.27,40.23-63.05,80.71L1414.06,1140l-21.93-9.36Z"/></g><path class="cls-72" d="M1410.86,1127.79s5.31,3.26,3.84,43c0,0,32.71,18.32,50.53-2.12,0,0-4.25-21.92-1.3-33.53l-21.43-26-21.48-3.75Z"/><path class="cls-11" d="M1518.06,992.86s3.84,71.31,3.84,93.38-14,65.26-51.76,56.18-50.29-27-49.31-34.59-1.39-19.95-13.49-26.33-19.46-14.06-18.15-29.76,12.43-8.18,21.75-17.83,11.12-22.73,11.12-22.73S1501.7,1014,1518.06,992.86Z"/><g class="cls-84"><path class="cls-72" d="M1385.43,1062.2c.24,0,5.15-10.22,25.26-10.71s20.36-32.79,20.36-32.79,57.22,12.31,97-23.36L1517.89,985,1407.5,998.09s-16,33-16.19,34.68-10.79,7.85-10.79,7.85Z"/></g><path class="cls-5" d="M1437.8,1717.63c-13.25,28-49.07,29.68-49.07,29.68s-91.26-158.23-100.08-174.42c-8.26-15.13-5.78-109.05-5.43-121.23,8.66,7.49,29.7,18.95,70.16,6.28.16,18.76.71,76.9,2.08,99.25.29,4.72,3,12.76,7.35,22.8,19.24,44.7,69.84,129.08,74.64,137Z"/><g class="cls-85"><path class="cls-72" d="M1331.29,1460.26s8.51,5.73,8.18,31.57-.65,50.7,3.6,71.3S1435,1729,1435,1729l8.83-9.54L1362,1560.84l-3.27-115.46Z"/></g><rect class="cls-21" x="1863.65" y="826.96" width="12.04" height="582.27" transform="translate(245.13 -333.35) rotate(10.9)"/><path class="cls-86" d="M1708.2,2339.36s.78,61.9,8,74.56l-29.25,25.23-51.59-5.53-5.93-86.18Z"/><path class="cls-4" d="M1679.56,2423.07c-19.27,4.2-34.42-1.41-45-.58s-10,17.23-8.6,46.82-4.56,67.06,25.75,66.53,174-8.22,205.15-21.45,19.33-46.89-13.07-51.74-120.74-42.76-125.78-51S1702.36,2418.11,1679.56,2423.07Z"/><g class="cls-87"><path class="cls-21" d="M1884.27,2486.16s-189.25,32.63-269.81,27l12.11,28.9,233.84-5.48s33.57-25.86,33.38-27.15S1884.27,2486.16,1884.27,2486.16Z"/></g><path class="cls-77" d="M1578.57,2348.62c-.27-16.25,2.94-23.06,28.46-21.58s111.86-7.85,127.56-12.27,18.64,69.67,12.75,75.07-37.77,12.75-76,15.7-82.43,4.9-87.82-12.76S1578.7,2356.48,1578.57,2348.62Z"/></svg>