<svg id="bold" enable-background="new 0 0 32 32" height="512" viewBox="0 0 32 32" width="512" xmlns="http://www.w3.org/2000/svg"><path d="m26 32h-20c-3.314 0-6-2.686-6-6v-20c0-3.314 2.686-6 6-6h20c3.314 0 6 2.686 6 6v20c0 3.314-2.686 6-6 6z" fill="#e3f8fa"/><g fill="#8ce1eb"><path d="m18.166 19c-.115 0-.231-.039-.325-.12-.21-.18-.234-.495-.054-.705l.721-.841-.721-.841c-.18-.21-.156-.525.054-.705.211-.18.526-.156.705.054l1 1.167c.16.188.16.464 0 .651l-1 1.167c-.099.114-.239.173-.38.173z"/><path d="m13.834 19c-.141 0-.281-.059-.38-.174l-1-1.167c-.16-.188-.16-.464 0-.651l1-1.167c.18-.21.495-.234.705-.054s.234.495.054.705l-.721.841.721.841c.18.21.156.525-.054.705-.095.081-.21.121-.325.121z"/><path d="m15.388 19.987c-.269-.062-.437-.331-.375-.6l1-4.333c.062-.269.33-.435.6-.375.269.062.437.331.375.6l-1 4.333c-.062.264-.324.437-.6.375z"/></g><path d="m22 8.667h-12c-1.1 0-2 .9-2 2v10.667c0 1.1.9 2 2 2h12c1.1 0 2-.9 2-2v-10.667c0-1.1-.9-2-2-2zm.667 12.666c0 .367-.3.667-.667.667h-12c-.367 0-.667-.3-.667-.667v-9.333h13.333v9.333z" fill="#26c6da"/></svg>