<svg xmlns="http://www.w3.org/2000/svg" viewBox="0 0 48 48"><defs><style>.cls-1{fill:#b9d5ea;}.cls-2{fill:#33375c;}.cls-3{fill:#ebf3fe;}.cls-4{fill:#48bdff;}.cls-5{fill:#2d98f6;}</style></defs><title>folder management</title><g id="folder_management" data-name="folder management"><path class="cls-1" d="M22,38H15a1,1,0,0,1,0-2h7A1,1,0,0,1,22,38Z"/><path class="cls-1" d="M33,38H26a1,1,0,0,1,0-2h7A1,1,0,0,1,33,38Z"/><path class="cls-1" d="M41,38H37a1,1,0,0,1,0-2h4A1,1,0,0,1,41,38Z"/><path class="cls-1" d="M11,38H7a1,1,0,0,1,0-2h4A1,1,0,0,1,11,38Z"/><path class="cls-1" d="M34,35V31a1,1,0,0,1,2,0v4A1,1,0,0,1,34,35Z"/><path class="cls-1" d="M12,35V31a1,1,0,0,1,2,0v4A1,1,0,0,1,12,35Z"/><path class="cls-1" d="M23,35V18a1,1,0,0,1,2,0V35A1,1,0,0,1,23,35Z"/><path class="cls-2" d="M20,22H14.41c-1.25-1.27-.34-1-6.41-1a1,1,0,0,0-1,1v9a1,1,0,0,0,1,1H20a1,1,0,0,0,1-1V23A1,1,0,0,0,20,22Zm-1,8H9V23h3.59c1.25,1.27.34,1,6.41,1Z"/><path class="cls-3" d="M19,24v6H9V23h3.59C13.9,24.33,12.9,24,19,24Z"/><path class="cls-2" d="M40,22H34.41c-1.25-1.27-.34-1-6.41-1a1,1,0,0,0-1,1v9a1,1,0,0,0,1,1H40a1,1,0,0,0,1-1V23A1,1,0,0,0,40,22Zm-1,8H29V23h3.59c1.25,1.27.34,1,6.41,1Z"/><path class="cls-3" d="M39,24v6H29V23h3.59C33.9,24.33,32.9,24,39,24Z"/><path class="cls-2" d="M31,8H24.41l-1.7-1.71C22.3,5.9,22.47,6,17,6a1,1,0,0,0-1,1V18a1,1,0,0,0,1,1H31a1,1,0,0,0,1-1V9A1,1,0,0,0,31,8Zm-1,9H18V8h3.59l1.7,1.71c.43.4.34.29,6.71.29Z"/><path class="cls-4" d="M30,10v7H18V8h3.59c1.79,1.8,1.86,2,2.41,2Z"/><path class="cls-2" d="M15,34H11a1,1,0,0,0-1,1v4a1,1,0,0,0,1,1h4a1,1,0,0,0,1-1V35A1,1,0,0,0,15,34Zm-1,4H12V36h2Z"/><rect class="cls-5" x="12" y="36" width="2" height="2"/><path class="cls-2" d="M37,34H33a1,1,0,0,0-1,1v4a1,1,0,0,0,1,1h4a1,1,0,0,0,1-1V35A1,1,0,0,0,37,34Zm-1,4H34V36h2Z"/><rect class="cls-5" x="34" y="36" width="2" height="2"/><path class="cls-2" d="M26,34H22a1,1,0,0,0-1,1v4a1,1,0,0,0,1,1h4a1,1,0,0,0,1-1V35A1,1,0,0,0,26,34Zm-1,4H23V36h2Z"/><rect class="cls-5" x="23" y="36" width="2" height="2"/></g></svg>